<svg xmlns="http://www.w3.org/2000/svg" width="123.354" height="128.572" viewBox="0 0 123.354 128.572"><defs><style>.a{isolation:isolate;}</style></defs><g class="a" transform="translate(-36.86 -21.67)"><path d="M148.7,142.438h-.089c-10.619,0-21.435-.348-31.848-.679-11.834-.375-24.069-.768-36.135-.661-7.582.063-15.308.42-22.774.759-4.751.214-9.654.438-14.459.581a1.277,1.277,0,0,0,.08,2.545c4.823-.152,9.735-.375,14.5-.589,6.189-.277,12.548-.554,18.845-.688H93.631c7.743.125,15.478.357,23.051.6,10.458.33,21.274.679,31.929.679a1.313,1.313,0,0,0,1.366-1.277,1.277,1.277,0,0,0-1.277-1.268Z" transform="translate(-0.577 -12.764)"/><path d="M52.386,157.3a.652.652,0,1,0,0-1.3H48.572a.732.732,0,0,0-.732.732v7.011a.732.732,0,0,0,.732.732h3.876a.652.652,0,0,0,.643-.661.643.643,0,0,0-.643-.67H49.314v-2.429h2.394a.661.661,0,0,0,.661-.652.652.652,0,0,0-.661-.643H49.314v-2.152Z" transform="translate(-1.174 -14.359)"/><path d="M61.433,162.773a1.929,1.929,0,0,0-.688.214,2.956,2.956,0,0,1-1.232.277c-1.59,0-2.126-1.259-2.126-2.983s.518-3.09,2.01-3.09a2.679,2.679,0,0,1,1.232.3l.08.589a.7.7,0,0,0,.7.67c.366,0,.679-.241.634-.822v-.464a1.358,1.358,0,0,0-.893-1.241,4.733,4.733,0,0,0-1.786-.366c-2.438,0-3.421,2.036-3.421,4.385s1.054,4.341,3.465,4.341a4.823,4.823,0,0,0,2.277-.545.732.732,0,0,0,.375-.625.607.607,0,0,0-.625-.643Z" transform="translate(-2.04 -14.344)"/><path d="M70.518,155.92a.706.706,0,0,0-.723.723v2.831H66.964v-2.831a.715.715,0,0,0-.741-.723.723.723,0,0,0-.732.723v7.145a.723.723,0,0,0,.732.732.715.715,0,0,0,.741-.732v-3.037h2.831v3.037a.715.715,0,0,0,.723.732.724.724,0,0,0,.741-.732v-7.145a.723.723,0,0,0-.741-.723Z" transform="translate(-3.06 -14.351)"/><path d="M79.687,156H75.052a.652.652,0,1,0,0,1.3h1.581v6.511a.741.741,0,0,0,1.474,0V157.3h1.581a.652.652,0,0,0,0-1.3Z" transform="translate(-4.013 -14.359)"/><path d="M90.275,159.468c-1.045-.429-1.6-.679-1.6-1.358s.438-.956,1.277-.956a3.473,3.473,0,0,1,1.107.188l.063.527a.706.706,0,0,0,.706.652c.366,0,.7-.223.643-.8l-.063-.563a1.125,1.125,0,0,0-.822-1.009,4.582,4.582,0,0,0-1.608-.286c-1.786,0-2.787.991-2.787,2.367s1.17,1.974,2.322,2.456c.982.42,1.733.75,1.733,1.536s-.473,1.081-1.375,1.081a4.3,4.3,0,0,1-1.34-.223l-.063-.581a.688.688,0,0,0-.7-.67c-.33,0-.67.2-.634.813l.054.616a1.081,1.081,0,0,0,.84,1.036,6.344,6.344,0,0,0,1.849.295,2.55,2.55,0,0,0,2.849-2.483C92.731,160.62,91.48,159.968,90.275,159.468Z" transform="translate(-5.374 -14.344)"/><path d="M100.222,157.072c-.241-.84-.589-1.152-1.393-1.152s-1.143.313-1.393,1.152l-1.9,6.484a.893.893,0,0,0-.054.25.732.732,0,0,0,1.438.214l.429-1.554h2.965l.429,1.554a.714.714,0,0,0,.7.518.723.723,0,0,0,.732-.732.813.813,0,0,0,0-.25Zm-2.554,4.2,1.107-4.046h.1l1.107,4.046Z" transform="translate(-6.266 -14.351)"/><path d="M108.845,157.3a.652.652,0,1,0,0-1.3h-3.224a.652.652,0,0,0,0,1.3h.893v5.841h-.893a.652.652,0,0,0-.661.634.661.661,0,0,0,.661.661h3.224a.661.661,0,0,0,.661-.661.652.652,0,0,0-.661-.634h-.893v-5.877Z" transform="translate(-7.28 -14.359)"/><path d="M115.5,159.468c-1.045-.429-1.6-.679-1.6-1.358s.438-.956,1.286-.956a3.518,3.518,0,0,1,1.107.188l.063.527a.7.7,0,0,0,.7.652c.366,0,.7-.223.643-.8l-.062-.563a1.125,1.125,0,0,0-.813-1.009,4.583,4.583,0,0,0-1.608-.286c-1.786,0-2.8.991-2.8,2.367s1.17,1.974,2.322,2.456c.982.42,1.786.75,1.786,1.536s-.482,1.081-1.384,1.081a4.2,4.2,0,0,1-1.331-.223l-.063-.581a.706.706,0,0,0-.706-.67c-.33,0-.67.2-.625.813v.616a1.081,1.081,0,0,0,.84,1.036,6.387,6.387,0,0,0,1.849.295,2.558,2.558,0,0,0,2.858-2.483C117.966,160.62,116.706,159.968,115.5,159.468Z" transform="translate(-8.076 -14.344)"/><path d="M124.524,155.86c-2.456,0-3.394,2.036-3.394,4.376s.965,4.349,3.394,4.349,3.394-1.992,3.394-4.349S126.971,155.86,124.524,155.86Zm0,7.4c-1.42,0-1.938-1.393-1.938-3.028,0-1.456.438-3.046,1.938-3.046s1.938,1.59,1.938,3.046C126.462,161.871,125.944,163.264,124.524,163.264Z" transform="translate(-9.008 -14.344)"/><path d="M137.019,155.92a.741.741,0,0,0-.732.723v4.93h-.045l-3.01-5.216a.893.893,0,0,0-.759-.438.759.759,0,0,0-.813.723v7.145a.741.741,0,0,0,1.474,0v-4.814h0l2.992,5.109a.893.893,0,0,0,.786.438.75.75,0,0,0,.8-.732v-7.145A.732.732,0,0,0,137.019,155.92Z" transform="translate(-10.134 -14.35)"/><path d="M145.824,157.072c-.232-.84-.589-1.152-1.393-1.152s-1.143.313-1.393,1.152l-1.893,6.484a.66.66,0,0,0-.054.25.723.723,0,0,0,.732.732.706.706,0,0,0,.7-.518l.429-1.554h2.965l.455,1.563a.732.732,0,0,0,1.438-.214.9.9,0,0,0-.054-.25Zm-2.545,4.2,1.107-4.046h.1l1.107,4.046Z" transform="translate(-11.142 -14.351)"/><path d="M155.482,163.14h-2.858v-6.529a.741.741,0,0,0-1.474,0V163.7a.732.732,0,0,0,.732.732h3.572a.652.652,0,0,0,.643-.661.634.634,0,0,0-.616-.634Z" transform="translate(-12.217 -14.354)"/><path d="M39.307,73.351c0-.188-.188-.313-.25-.375.188.125.25.25.375.25s.375,0,.313-.063a4.711,4.711,0,0,1-.893-.991c.438,0,.893,1.054,1.366,1.179a1.554,1.554,0,0,0-.3-.625,1.545,1.545,0,0,1,.679.25c-.125-.25-.375-.375-.375-.616a.732.732,0,0,1,.625-.25c.438.429.688.616.8.616s.25-.25.25-.375c.375.063,1.313.438,1.491.438,0,0-.491-.375-.491-.5a2.86,2.86,0,0,0,.366.125,1.091,1.091,0,0,1-.063-.188c.063,0,.125.125.313.125a8.18,8.18,0,0,0,1.3.25.143.143,0,0,1,.125-.125c.5,0,.893,0,.893-.438a3.358,3.358,0,0,0,1.116.438,4.992,4.992,0,0,1-1.036-2.8,2.752,2.752,0,0,1,.125-.688,5.006,5.006,0,0,0,.616,2.492c0-.063.5.679.688.741-.688-.893-.75-2.358-.75-3.8V67.376a3.046,3.046,0,0,1,.125-1.054c.063.125.741.125.893.25s-.429.063-.429.241a1.911,1.911,0,0,1,.893-.125c0,.125-.188.188-.313.25a.2.2,0,0,0-.188.188l.563-.25c.188,0,.188.313.313.313a1.009,1.009,0,0,1,.616.188.58.58,0,0,0-.241.125.688.688,0,0,0,.554.313.679.679,0,0,0,.313-.063c.125-.063.25-.188.313-.188s0,.188.25.25a.241.241,0,0,0,.063.179c-.188,0-.188.063-.188.125s.313-.125.5-.125a.161.161,0,0,1,.179.188,2.752,2.752,0,0,1,.625-.125,2.679,2.679,0,0,1-1.054.5h.429a.67.67,0,0,1,.375.125,3.832,3.832,0,0,1,1-.188,3.294,3.294,0,0,0,.741.063c2.242,0,8.833-.813,10.717-9.27V59.1c-.063,0-.5,1.679-.893,1.786a10.717,10.717,0,0,0,.688-3.108,9.5,9.5,0,0,0-1.786-5.225,9.387,9.387,0,0,1,2,5.9c0-.25.116-.554.116-.8,0-5.162-3.921-8.636-8.833-10,3.421-1.992,6.028-6.037,6.091-9.458v-.25a8.5,8.5,0,0,0-8.931-8.2c0-1.241-1.3-1.92-3.662-1.92-5.287,0-5.412,1.742-5.412,1.554-.563.25-.8,1.25-.8,1.786-2.3,12.253-5.359,24.811-5.359,35.814v.5c0,2.8.071,6.091,1.992,6.091-.313-.375-.366-.563-.366-.688A2.394,2.394,0,0,1,39.307,73.351ZM51.65,33.491a3.848,3.848,0,0,1,.813-.063A4.385,4.385,0,0,1,56.875,37.8c0,3.483-3.474,6.591-7.145,7.279C50.167,41.074,51.159,37.466,51.65,33.491ZM48.6,51.4c.313,0,.625-.063.893-.063,4.349,0,8.27,2.679,8.27,5.778v.429c-.429,4.376-5.466,6.788-10.949,6.85C47.193,59.793,47.872,55.747,48.6,51.4Z" transform="translate(0 -0.657)"/><path d="M78.522,45.454a3.09,3.09,0,0,0,2.974-2.92V42.1c0-2.054-.741-2.8-1.858-2.8s-4.358,1.125-4.358,2.8C75.28,42.167,76.655,45.454,78.522,45.454Z" transform="translate(-4.107 -1.885)"/><path d="M163.306,48.758c.054-.063,0-.188.241-.375h-.241a.286.286,0,0,0-.25-.313.893.893,0,0,0-.438.188A46.263,46.263,0,0,1,149.624,53.3a1.277,1.277,0,0,0-.429-.893,210.628,210.628,0,0,1,6.136-25.087c0-.062.062-.188.062-.25a14.566,14.566,0,0,0,.893-3.733c0-.893-.313-1.429-1.241-1.429a2.019,2.019,0,0,0-.563.063,2.68,2.68,0,0,0-.688-.054c-1.3,0-3.233.679-3.572,1.554h-.25c-1.116,0-1.742,1.241-1.929,1.679-1.884,4.466-4.287,12.995-6.386,23.355-.5.179-1.054.411-1.786.714-.063,0-.125.063-.188.063a20.014,20.014,0,0,1-3.912,1.366.706.706,0,0,0-.5-.188.339.339,0,0,0-.366.313c0,.062.179.313.241.5s-.179.313-.179.429v.625a21.792,21.792,0,0,1-3.974,11.878,7.252,7.252,0,0,1-.25-1.992,20.544,20.544,0,0,1,.438-3.483,1.508,1.508,0,0,0,.054-.491c1.206-5.51,3.885-10.378,7.636-12.1.3,0,.554.125.893.125a1.26,1.26,0,0,0,.438-.071.509.509,0,0,0,.188-.366c0-.813-2.929-1.241-3.572-1.241h-.563c-4.466,0-7.681,4.85-9.217,9.735-3.01,4.126-6.037,8.109-6.993,8.243-.062,0-.062-.063-.062-.188a1.063,1.063,0,0,1,.062-.438,62.579,62.579,0,0,0,.8-7.958c0-3.849-1-7.145-5.109-7.145-4.975,0-7.886,5.975-10.253,9.458,1.3-7.958,5.769-26.793,5.761-32.08a2.876,2.876,0,0,0-.188-1.25c0-1.116-1.3-1.3-2.545-1.3-.563,0-1.188.063-1.617.063-2.554,0-4.358,2.679-4.662,5.162-.893,6.529-1.92,13.879-2.956,21.2a13.566,13.566,0,0,0-3.572,1.179c-.063,0-.125.063-.188.063a19.488,19.488,0,0,1-3.912,1.375.705.705,0,0,0-.5-.188.348.348,0,0,0-.375.313c0,.063.188.313.25.491s-.188.313-.188.438v.563a21.711,21.711,0,0,1-3.9,11.878,7.3,7.3,0,0,1-.25-1.992,20.409,20.409,0,0,1,.429-3.483,1.375,1.375,0,0,0,.063-.5c1.116-5.466,3.787-10.315,7.574-12.066.313,0,.563.125.893.125a1.152,1.152,0,0,0,.429-.063.545.545,0,0,0,.188-.375c0-.8-2.92-1.241-3.572-1.241H92.09c-4.662,0-7.931,5.234-9.387,10.3-2.367,3.171-5.528,7.056-6.832,7.056-.554,0-.554-.8-.554-1.179,0-2.8,2.224-9.824,2.411-11.316a1.929,1.929,0,0,0,.188-.813c0-1.992-2.367-2.42-3.921-2.42a1.107,1.107,0,0,0-.741.188c-2.054,1.179-3.974,7.958-3.974,11.5s2.117,6.529,5.787,6.52c2.438,0,4.707-1.786,6.779-4.153V60.4c0,2.367.625,6.341,3.671,6.591.25,0,.554.063.8.063a3.259,3.259,0,0,0,.893-.125c3.572-1.786,3.108-2.617,3.912-4.171.741-.679,1.3-5.225,1.3-6.252a28.828,28.828,0,0,0-.438-4.287l.179-.063c.25.063-.063.188.438.188.813,0,2.492-.25,2.8-.75a.581.581,0,0,0,.438-.313c0-.25.893-.313,1.241-.813.313,0,.813-.125.813-.429.3,0,.554-.313.616-.375a.215.215,0,0,0-.063.125l.625-.241c-.688,4.876-1.349,9.717-1.92,14.29a4.386,4.386,0,0,0-.063.893,3.974,3.974,0,0,0,1,3.054,1.785,1.785,0,0,0-.125-.5c0-.375.25-.125.25-.625.125,0,.438.375.438.375.063.188.179.688.241.688v-.893a.473.473,0,0,1,.062-.25c0,.25.25.813.5.813,0-.25-.063-.375-.063-.75a.536.536,0,0,0,.188.313c0-.125,0-.375.125-.438s.125.438.188.5,0,.313.063.313.063-.063.063-.25c.125,0,.188.125.25.125v-.563c0,.125.75.125.75.125s-.688.188-.688.313.625.375.688.375c0-.313.063-.5.313-.5a.633.633,0,0,1,.062-.188c.125,0,.188-.125.188-.25l.188.188.054-.188c.063.313.063.375.125.438l.438-.438c.062.063.5,0,.5.125v.25c0,.125,0,.188.063.188s.25-.25.313-.375v.313c.125,0,.179-.313.241-.5,0,.375.063.5.25.5a11.11,11.11,0,0,1,.5-2.117c0-.063.063-.125.063-.188.25-.125,1.366-1.3,1.366-1.786,0-2.733,6.707-9.27,8.878-12.879a11,11,0,0,1,.125,2.054c0,2.8-.554,6.091-.554,8.77,0,4.162,1.938,5.841,4.358,5.841a7.288,7.288,0,0,0,3.912-1.375,22.275,22.275,0,0,0,3.787-3.546c.232,2.268,1.107,4.975,3.572,5.171.25,0,.563.063.813.063a3.241,3.241,0,0,0,.893-.125c3.572-1.742,3.108-2.608,3.912-4.162.75-.688,1.3-5.225,1.3-6.252a27.684,27.684,0,0,0-.438-4.287l.188-.063c.25.063-.063.188.429.188.813,0,2.492-.25,2.8-.75a.59.59,0,0,0,.429-.313c0-.241.893-.313,1.241-.8-.188.965-.375,1.929-.554,2.92l-.375,1.992c-1.17,6.091-2.679,13.986-2.679,20.7a26.506,26.506,0,0,0,.893,7.332c1.116,1.786,2.679,3.921,4.725,3.921a4.027,4.027,0,0,0,1.554-.375,2.617,2.617,0,0,1,1.929-1.188c1.116,0,.991-.063,1.679-.563.125.125.188.188.313.188s.429-.313.679-.313c1.867,0,2.858-4.162,3.045-4.287s.25-1.366.313-1.366a26.313,26.313,0,0,0,.893-7.529c0-5.4-.947-11.682-2.5-15.352a86.108,86.108,0,0,0,8.7-3.483,5.868,5.868,0,0,0,.5-.563,10.878,10.878,0,0,1-2.679,1.179c.688-.679-.054.188,2.929-1.617a1.4,1.4,0,0,1,.741-.5s.8-.429,1.179-.679c.125-.25.188-.313.188-.375s-.616.438-.991.625c.063-.188.3-.25.375-.375-.5,0-.893.563-1.375.563,1.554-1.125.75-.438,2.3-1.5.063.063.491-.893.554-1.054S163.36,48.758,163.306,48.758Zm-64.536.17c0-.188.313-.188.375-.188s-.062.188-.125.188Zm.25.375c0-.179.116-.188.179-.188v.134a.351.351,0,0,1-.179.089Zm16.237,13.915a1.206,1.206,0,0,0-.188-.625c.125,0,.25.313.25.438s-.062.161-.062.223Zm.241-2.492a.232.232,0,0,1,.062.188.321.321,0,0,1-.125-.25V59.234c0-.188.125-.3.125-.241s.063.116.063.241-.063.688-.063.893c.188,0,.063-.688.188-.625v.375c0,.491,0,.884-.277.884Zm.188-1.786a2.462,2.462,0,0,1,.125-.375c0,.188.063.313.063.429s-.188-.027-.188-.027Zm.438-.188c-.063,0-.125-.188-.125-.25s.125-.25.25-.25c0,.4-.063.527-.125.527Zm.125-.688c-.063,0-.188-.25-.188-.375s.25,0,.313-.063Zm24.319,21.953a7.186,7.186,0,0,1,.375,1.063c0,.125-.125.125-.125.188a10.067,10.067,0,0,0-.25-1Zm-.982-3.046a2.216,2.216,0,0,0,.063-.375,1.144,1.144,0,0,1,.125.563.17.17,0,0,1-.188-.188Zm.625,4.725a2.9,2.9,0,0,1-.375-.893c.25,0,.313.063.313.125a.223.223,0,0,1-.188.125c0,.125.25.3.313.3a.277.277,0,0,1,.063.188c-.134-.036-.134.027-.134.152Zm.063-1.983a2.677,2.677,0,0,1,.063-.313,1.425,1.425,0,0,1-.062-.25c0-.063-.125-.188-.125-.125,0-.25.063-.313.125-.313a5.586,5.586,0,0,0,.116.75v.366c-.125,0-.125-.063-.125-.116Zm1.241,2.679c0,.125-.125.125-.188.125a.134.134,0,0,1-.125-.125.636.636,0,0,1,.063-.188s-.188.125-.188.188a2.393,2.393,0,0,0,.25.893.893.893,0,0,0-.125.188c-.063,0-.063-.063-.063-.188s.062-.125.062-.188-.062-.125-.188-.188-.062-.179-.125-.179-.116.125-.116.179-.188-.116-.188-.179.125-.188.125-.25a1.033,1.033,0,0,0-.125-.375v-.563a1.678,1.678,0,0,0-.063-.554,13.2,13.2,0,0,0,.554,1.241c.063-.125.125-.063.125-.25s.063-.125.063-.188a.892.892,0,0,1-.125-.25c.25,0,.188.188.313.313a3.574,3.574,0,0,0,.25.893c-.071-.054-.071-.3-.2-.366Zm2.8,4.466c0,.063-.25.125-.375.25l-.125-.188c0-.188.375-.125.5-.375Zm1.786-4.85a32.688,32.688,0,0,1-.5-6.966,109.507,109.507,0,0,1,2.161-15.361A32.947,32.947,0,0,1,148.954,69c.009,5.037-.857,10.324-2.849,13ZM150.758,63.1c0-.125,0-.188-.062-.25.188.063.188.188.188.5-.125,0-.125-.125-.125-.25Zm.241,0c0-.25-.063-.375-.063-.5a1.055,1.055,0,0,1,.063-.429c.063,0,.188.8.25.8a.438.438,0,0,1-.25.125Zm1.25,6.591c0,.063.063.25.063.313a.286.286,0,0,1-.188-.188l-.3-.313c0-.063.366-.063.366-.063s.125.125.188.125-.063.125-.125.125Zm.375-1.786c.063,0,.063.313.125.554-.062-.054-.188-.116-.188-.179s0-.268.063-.33Zm-.438-.75c.063,0,.063-.125.063-.188v-.241a.348.348,0,0,1,.125-.313v.893a3.3,3.3,0,0,0,.063.813c-.313-.25-.125-.25-.375-.5.063,0,.063-.125.063-.188a.964.964,0,0,0-.125-.5v-.223c.089,0,.188.366.188.491Zm-.1,1.42s-.089-.17,0-.17a.633.633,0,0,0,.063-.188c.063,0,.125.313.125.375a.259.259,0,0,0,.188-.071.313.313,0,0,0,.063.188c.063,0,.125-.063.188-.063s.063.063.063.188c-.25,0-.25.063-.25.125a.488.488,0,0,1-.25.25.661.661,0,0,1,.125-.313.893.893,0,0,1-.125-.188c-.063,0-.063.188-.063.313s-.125-.063-.125-.125a1.07,1.07,0,0,1,.062-.3c0,.054-.125.116-.188.116s-.125.188-.188.188-.063-.063-.063-.25a1.242,1.242,0,0,1,.375-.071Zm-.813-6.591v.366a.232.232,0,0,1,.063.188l-.063.25a1.68,1.68,0,0,1-.125-.741l-.125-.25c0-.25,0-.313.063-.313s.223.313.223.5Zm8.449-10.824c.25,0,.438-.063.438-.188s-.188.375-.188.438c-.438.179-.688.429-.813.429s-.063-.063-.063-.241.411-.438.661-.438Zm-1.786,1.679a1.572,1.572,0,0,1,.813-.563,2.331,2.331,0,0,0,1.429-.625,5.573,5.573,0,0,1-2.161,1.188Z" transform="translate(-3.466 0)"/><path d="M76.172,88.455c0-.188-1.116-.375-1.366-.375h-.277a.232.232,0,0,1-.188-.063l-.179.063a.125.125,0,0,0-.125-.116.366.366,0,0,1-.313-.125.473.473,0,0,1-.25.125H73.1c-.188,0-.188.062-.188.062-2.849.027-13.325,12.128-13.325,12.128s-.125.25-.25.25-.125-.125-.125-.188c.616-4.725,2.349-12.191,3.778-18.594,0,0-.625,0-.625-.116a6.785,6.785,0,0,1-.339-1.063,2.384,2.384,0,0,1-.625-.188c-.188,0-.188.188-.313.188a2.679,2.679,0,0,1-1.054-.125s-.188-.179-.313-.179c-.313,0-.563.241-.893.25s-.75-.062-1.125-.062a1.929,1.929,0,0,0-1.241.375c-.25.054-.5.366-.813.366-.054,0-.116.063-.179.063a.625.625,0,0,0-.25-.063c-.25,0-.438.125-.625.125a.8.8,0,0,0-.375-.063c-.366,0-.679.25-.991.25,0,.063-.125.125-.25.125-2.045,5.725-4.466,16.415-6.136,25.436-.3,3.108-1.3,7.9-1.3,12.182a12.807,12.807,0,0,0,1.25,6.252,2.161,2.161,0,0,0,1.554,1.179,6.6,6.6,0,0,0,3.671,1.116,2.974,2.974,0,0,0,.741-.062c0-.125.125-.188.25-.188a.205.205,0,0,0,.063-.179c0-.062.5.3.688.491,0-.188-.125-.313-.125-.491a.893.893,0,0,1,.125-.313c.116,0,.3.063.3.188,0-.125.625.3.893.616,0-.313-.25-.438-.25-.741.063.179.25.429.375.429a2.43,2.43,0,0,0-.188-.679c.188.188.313.491.491.491s.375.313.625.438a.822.822,0,0,0-.188-.625c0-.241.063-.3.125-.3s.438.616.688.741a1.447,1.447,0,0,1-.125-.554c.188.179.438.491.554.491a3.012,3.012,0,0,1-.179-.563c.241,0,.429.438.491.438a.464.464,0,0,0,.063-.313c0-.554-.625-1.3-.741-1.67a25.8,25.8,0,0,1-.634-5.359,43.331,43.331,0,0,1,.893-7.582l.125-.688c1.063,2.117,5.475,6.028,7.9,7.02a1.939,1.939,0,0,1-.125-.438c.5.893,2.858,1.554,3.733,1.742a11.327,11.327,0,0,1,1.241.25,17.4,17.4,0,0,1,1.929.491c.063,0-.063-.062-.063-.188s.125-.188.438-.188a.509.509,0,0,1-.071-.25,5.742,5.742,0,0,1,1.5.563,15.418,15.418,0,0,1,1.92.554c-4.975-4.966-11.61-7.886-14.433-15.344C65.928,99.9,72.573,93.412,77.048,88.7c-.063,0-.125-.188-.188-.125l-.25.25c-.063,0-.063-.063-.063-.313-.125,0-.125.063-.188.063S76.235,88.455,76.172,88.455Z" transform="translate(-0.927 -6.25)"/><path d="M83.371,112.922c1.116-5.475,3.787-10.324,7.574-12.066.313,0,.563.125.893.125a1.153,1.153,0,0,0,.429-.063.545.545,0,0,0,.188-.375c0-.8-2.92-1.241-3.572-1.241h-.509c-6.466,0-10.253,10.083-10.253,15.8,0,2.367.634,6.341,3.68,6.591.25,0,.554.063.8.063a3.26,3.26,0,0,0,.893-.125c3.572-1.786,3.108-2.617,3.912-4.171.741-.688,1.3-5.225,1.3-6.252a27.79,27.79,0,0,0-.438-4.3l.188-.054c.25.054-.063.179.438.179.813,0,2.483-.25,2.8-.741a.581.581,0,0,0,.438-.313c0-.25.893-.313,1.241-.813.313,0,.813-.125.813-.438.3,0,.554-.313.616-.366a.187.187,0,0,0-.062.116c.563-.2,1.286-.527,2.054-.732a11.762,11.762,0,0,0-3.912,8.386c0,5.466,3.8,8.136,8.833,8.136,4.8,0,8.77-2.885,12.218-7.306-.25,1.884-.491,3.742-.715,5.555a4.468,4.468,0,0,0-.062.893,3.949,3.949,0,0,0,1,3.045,1.724,1.724,0,0,0-.134-.5c0-.375.25-.125.25-.625.125,0,.438.375.438.375.063.188.188.688.25.688v-.893a.473.473,0,0,1,.063-.25c0,.25.25.813.5.813,0-.25-.063-.375-.063-.75a.536.536,0,0,0,.188.313c0-.125,0-.375.116-.438s.125.438.188.5,0,.313.063.313.063-.062.063-.25c.125,0,.188.125.25.125v-.563c0,.125.75.125.75.125s-.688.188-.688.313.625.375.688.375c0-.313.063-.5.3-.5a.634.634,0,0,1,.063-.188c.125,0,.188-.125.188-.25l.188.188.063-.188c.063.313.063.375.125.438l.438-.438c.063.063.491,0,.491.125v.25c0,.125,0,.188.063.188s.25-.25.313-.375v.214c.125,0,.188-.313.25-.5,0,.375.063.5.25.5a11.912,11.912,0,0,1,.491-2.117c0-.063.063-.125.063-.188.25-.125,1.366-1.3,1.366-1.786,0-2.733,6.707-9.27,8.931-12.879a11,11,0,0,1,.125,2.054c0,2.8-.554,6.091-.554,8.77,0,4.162,1.929,5.841,4.358,5.841a7.216,7.216,0,0,0,3.912-1.375c.625-.438,3.912-3.171,3.849-3.858,0-.375.5-.741.688-.893,0,.375-.313.313-.313.554a25.778,25.778,0,0,0,2.179-2.858c0-.188,0-.313.179-.438.063.125.25-.313.313-.313a18.1,18.1,0,0,0,1.617-2.42c-.25,0-.313.5-.625.679-.063,0,0,.25-.125.25s-.8.75-.893.813a.277.277,0,0,0-.063-.188c-.062,0,.063-.125.063-.188.625,0,1.679-1.867,1.786-1.867a14.415,14.415,0,0,0,1.116-1.491c-.125.125-.375.375-.438.375a.635.635,0,0,0,.063-.188c-.313-.063-.893.893-1.116,1.179,0,0-.375,1.188-.893,1.188a3.857,3.857,0,0,0,.491-.625c0-.75,1.491-2.054,1.992-2.92a.786.786,0,0,1-.438.3.813.813,0,0,0,.375-.554c0-.063-.25.25-.375.25l.563-.893a1.348,1.348,0,0,0,.3-.563c-.125.125-.188.125-.241.125.179-.616.554-.616.679-1.054-.25,0-.313-.375-.5-.375v-.366a1.323,1.323,0,0,1-.188.241,2.036,2.036,0,0,1-.741.313c-.063,0-.125-.063-.188-.125a.232.232,0,0,1-.188.063c0-.125-.313.25-.5.375s-.116-.125-.179-.125a.277.277,0,0,0-.063.188c-.125,0-.125-.063-.188-.063s-.188.188-.25.25c-3.724,5.1-8.886,12.441-10.19,12.629-.063,0-.063-.063-.063-.188a1.063,1.063,0,0,1,.063-.438,60.982,60.982,0,0,0,.8-7.958c0-3.849-1-7.145-5.1-7.145-4.975,0-7.9,5.975-10.253,9.458,1.295-7.958,5.761-26.793,5.761-32.08a2.8,2.8,0,0,0-.188-1.241c0-1.125-1.313-1.313-2.554-1.3-.554,0-1.179.063-1.617.063-2.545,0-4.349,2.679-4.653,5.162-1.036,7.85-2.367,16.88-3.572,25.632-3.233,4.76-7.69,9.44-11.012,9.44h-.313c-2.054-.188-2.679-1.786-2.679-3.572,0-2.929,2.108-9.458,5.359-9.458.125,0,.188.063.313.063a4.642,4.642,0,0,0,.893.062c1.491,0,2.429-.75,2.429-1.554,0-1.679-3.421-1.929-4.608-1.929a12.057,12.057,0,0,0-6.85,2.233h-.107a13.771,13.771,0,0,0-6.153,1.438c-.063,0-.125.063-.188.063a19.327,19.327,0,0,1-3.93,1.322.705.705,0,0,0-.491-.179.348.348,0,0,0-.375.3c0,.062.188.313.25.5s-.188.313-.188.438v.563a21.685,21.685,0,0,1-3.93,11.9,7.147,7.147,0,0,1-.25-1.983,20.3,20.3,0,0,1,.429-3.483A1.375,1.375,0,0,0,83.371,112.922Zm64.214-5.769a3.956,3.956,0,0,1-.491.893c-.063-.063-.125-.125-.125-.188-.027-.268.286-.554.589-.706Zm-3.037,3.572c.063,0,.3-.25.429-.366s.313-.563.563-.563c.063,0-.25.616-.313.741a1.143,1.143,0,0,1-.741.563c0,.25-.063.438-.25.5-.027-.277.1-.9.286-.9Zm-12.191,1.625-.125.438c-.063,0-.188-.25-.188-.375s.223-.027.286-.089Zm-.125.625c0,.375-.054.5-.125.5s-.116-.188-.116-.25.089-.277.214-.277Zm-.429.313c0,.188.063.313.063.438s-.188-.063-.188-.063a2.457,2.457,0,0,1,.1-.4Zm-.25.438c.063.063.063.116.063.241s-.062.688-.062.893c.188,0,.063-.688.188-.625v.375c0,.375,0,.8-.25.8a.241.241,0,0,1,.063.188.3.3,0,0,1-.125-.241v-1.429c-.027-.17.1-.295.1-.232Zm-.25,4.037c0,.063-.063.125-.063.188a1.277,1.277,0,0,0-.179-.625c.089-.027.214.286.214.411ZM98.152,102.634l-.339.259h-.527Zm-1.232.232c.125,0,.188,0,.188.063s-.375.188-.5.188-.188,0-.25-.063a.768.768,0,0,0,.536-.214Zm.214.581-.134.116a7.147,7.147,0,0,0-1.081.241l-.063-.188a7.783,7.783,0,0,1,1.25-.2Zm-1.393.17c0,.188-.062.25-.125.25a.322.322,0,0,1,.1-.277Zm-.5.438c0-.188.125-.188.188-.188-.027.161-.089.161-.214.161Zm.125-.563c0,.125-.063.188-.125.188h-.259c0-.214.295-.214.357-.214Z" transform="translate(-4.41 -5.854)"/></g></svg>