<svg xmlns="http://www.w3.org/2000/svg" width="444.488" height="459.322" viewBox="0 0 444.488 459.322"><defs><style>.a{fill:#040405;}.b,.c{fill:none;}.c{stroke:#262626;stroke-linecap:round;stroke-width:3px;}</style></defs><g transform="translate(-353.558 -2093.278)"><g transform="translate(395 2197.21)"><g transform="translate(37.849 29.532)"><path class="a" d="M31.36,156.308a99.4,99.4,0,0,1-.122-13.146c.565-6.944,2.264-13.69,4.043-20.432.786-2.982,1.964-5.891,3-8.823a6.455,6.455,0,0,1,.817-1.253c.933-2.1,1.691-4.274,2.836-6.29a51.29,51.29,0,0,1,8.142-10.714,16.969,16.969,0,0,1,1.525-1.226A17.436,17.436,0,0,1,53.2,91.549a11.305,11.305,0,0,0,2.812-5.313,33.349,33.349,0,0,1,3.514-9.866,33.682,33.682,0,0,1,9.834-11.9c4.328-3.242,8.862-6.293,13.308-9.425a1.516,1.516,0,0,1,.337-.125c3.722-2.616,7.536-5.149,11.143-7.871,4.34-3.275,7.706-7.135,9.33-11.936a19.789,19.789,0,0,1,1.44-2.691c.979-1.849.764-3.754.482-5.709-.107-.732.523-1.542.874-2.3a.911.911,0,0,1,.608-.319c2.562-.365,5.75.955,6.58,2.982a50.07,50.07,0,0,1,2.56,7.728,22.518,22.518,0,0,1,.135,5.263c-.032,2.643-.337,5.3-.113,7.922a23,23,0,0,0,1.566,5.327c1.364,3.932,2.912,7.824,4.153,11.781a71.921,71.921,0,0,1,2.6,10.237,93.77,93.77,0,0,1,.834,11.152,50.445,50.445,0,0,1-.208,8c-.49,4.017-1.159,8.027-2.029,12-.963,4.405-2.2,8.769-3.4,13.134-.506,1.84-1.23,3.636-1.856,5.451q-1.358,4.346-2.716,8.692c-.2,1.451-.358,2.91-.625,4.353-.434,2.324-.929,4.64-1.423,6.956a48,48,0,0,1-3.872,12.3c-1.685,3.267-3.247,6.569-5.729,9.485A68.1,68.1,0,0,1,83.76,183.219c-2.59,1.4-5.395,2.524-8.1,3.774a17.342,17.342,0,0,1-2.648,1.322,36,36,0,0,0-12.3,6.809,37.782,37.782,0,0,1-6.287,3.673,6.483,6.483,0,0,0-3.19,3.017,24.652,24.652,0,0,1-4.107,5.623c-1.193,1.322-2.714,1.378-4.565.714-1.046-.374-2.139-.651-3.2-.99-1.5-.479-2.031-1.677-2.671-2.708a10.331,10.331,0,0,1-1.256-4.919,21.028,21.028,0,0,0-1.009-5.073c-.5-1.518-1.564-2.911-2.093-4.426a14.743,14.743,0,0,1-.907-4.523c-.048-2.765.3-5.531.3-8.3a21.411,21.411,0,0,0-.6-4.513,17.328,17.328,0,0,1,.081-6.923A40.731,40.731,0,0,0,31.36,156.308ZM103.232,40.4a.715.715,0,0,0-.56.053.506.506,0,0,0-.134.463,3.457,3.457,0,0,0,2.679,2.029C105.267,41.7,103.988,41.179,103.232,40.4Zm9.589,6.895a3.9,3.9,0,0,1-2.193-1.434c-.769-1.135-2.665-1.749-4.074-2.588l-.359.274a9.463,9.463,0,0,0,1.722,2.078,28.82,28.82,0,0,0,3.836,2.055,7.735,7.735,0,0,0,1.417.386l.161-.35A2.147,2.147,0,0,0,112.82,47.292Zm.628-1.15c-.312-1.062-1.148-.96-2.174-.745C111.918,45.991,112.371,46.7,113.448,46.142Zm-3.027-1.079,1.617-.614c-1.328-1.049-2.477-2.154-4.211-2.573l-.337.286Zm2.256-2.338L108.9,40.12A3.362,3.362,0,0,0,112.678,42.725Zm-.947,1.048,2.153.774.232-.363C113.758,43.36,113.093,43.2,111.73,43.773Zm-.4,6.6a2.22,2.22,0,0,0,2.824,1.126C114,49.7,112.4,50.653,111.332,50.375Zm1.767-.662.213-.347c-.668-.324-1.338-.648-2-.976-.412-.2-.988-.335-1.191-.638a2.21,2.21,0,0,0-2.223-1.228C108.286,47.526,111.914,49.748,113.1,49.713Zm-3.247-.767c-1.17-.527-2.19-1.108-2.483-2.318-.229-.946-1.158-1.2-2.389-1.25.439.838.6,1.831,1.273,2.289a32.042,32.042,0,0,0,4.294,2.1l.276-.182A7.021,7.021,0,0,0,109.853,48.946Zm-3.636-4.088-.655-1.438-1.489.117C104.432,44.542,104.8,44.77,106.217,44.858Zm.329-3.715-2.979-1.586C104.867,41.411,105.793,41.882,106.546,41.143Zm-.891-6.652-.294.151,1.255,1.628-.211.208-1.46-.716c-.152.4-.321.788-.441,1.181-.641,2.09-.465,2.391,1.826,3.344a3.545,3.545,0,0,1,.712.525q.391.293.779.587c.026-.29.159-.608.058-.865-.316-.81.069-1.245,1.084-1.134.052-.242.1-.484.221-1.029.752,1.55,1.625,2.583,3.392,2.606l.366-.345L109,37.515l1.781.236-1.171-1.343c-.323.724-.841.349-1.244.071C107.438,35.841,106.556,35.158,105.655,34.492Zm.387-1.142c.595,1.444,2.064,2.248,3.575,3.023.532-.378.826-.052,1.2.261,1.6,1.316,2.251,1.422,3.618.433l-1.146.147c-.951-.563-1.892-1.561-2.853-1.582A3.193,3.193,0,0,1,108.1,34.5c-.562-.48-1.095-.982-1.639-1.475Zm4.192-.681-2.963-1.814-.319.37c1.124.446,1.61,1.636,3.04,1.724Zm-3.8-.453,3.444,2.96C110.234,34.2,108.142,32.323,106.435,32.216Zm.712-5.419-.1.428,3.514.56.072-.3Zm3.376,1.955,2.534.912C112.661,28.126,111.223,29.133,110.523,28.752Zm3.1,2.195a2.278,2.278,0,0,0-.848-.466c-.482-.161-1-.246-1.488-.392-.413-.123-.809-.285-1.212-.43l-.165.213c.9.548,1.788,1.119,2.724,1.625a1.572,1.572,0,0,0,.938,0C113.652,31.472,113.73,31.051,113.622,30.946Zm-3.018.465c2.482,2.13,2.971,2.3,3.464,1.525Zm1.489,2.432-.209.2c.632.434,1.244.89,1.913,1.277.109.064.476-.183.976-.392Zm2.481,7.82-1.945-.1-.135.254c.339.252.655.672,1.022.709s.773-.315,1.164-.5Zm-.4,15.367,2.959,1.064A1.965,1.965,0,0,0,114.172,57.03Zm3.108,7.38c1.065.213,1.773,1.164,2.889.214C119.235,64.207,118.488,63.552,117.28,64.41Zm-3.643,14.149-2.182-.961c1.513,2.614,2.538,3.164,4.843,2.658l.12-.391-3.427-.818Zm-6.609-.506c-.672-1.621-2.244-2.227-3.809-2.842C104.026,76.523,104.751,77.92,107.028,78.052Zm-4.713-1.081c.918,1.69,2.319,2.675,3.512,2.47A5.009,5.009,0,0,0,102.315,76.971Zm6.11-.573c-.6-1.349-2.021-1.736-3.645-2.23C106.326,76.043,106.345,76.059,108.425,76.4Zm.707-2.375-.758-.922-1.649.27C107.654,74.662,107.862,74.715,109.131,74.023Zm-1,1.156,1.569,1.629.345-.522,2.7,1.122.217-.241c-.563-.6-1.1-1.221-1.692-1.8C110.137,74.249,109.718,74.226,108.136,75.179Zm7.943,36.351a2.782,2.782,0,0,0-2.9-1.229C114.167,110.836,114.6,111.848,116.079,111.531Zm-3.68.251c.951,1.561,2,2.068,3.458,1.711C115.225,112.251,114,111.845,112.4,111.781Zm4.348-1.892c-1.144-1.666-1.3-1.744-2.907-1.478A2.506,2.506,0,0,0,116.747,109.889Zm.211-2.293c-.562-.584-1.027-1.274-2.218-.923C115.628,107.941,115.84,108.025,116.958,107.6Zm.385-1.946c-.571-.607-.966-1.476-2.227-.9C115.907,106.064,116.216,106.19,117.343,105.649Zm.327-1.988c-.77-.388-1.036-1.494-2.378-.7C115.983,103.613,116.469,104.3,117.669,103.661Zm-1-4.913c.772,1.183,1.437,1.489,2.662,1.155C118.171,98.2,117.951,98.107,116.665,98.748Zm2.821-1.478c-.67-.473-1.049-1.413-2.4-.553C117.878,97.186,118.248,98.288,119.487,97.27Zm-3.55,3.844c.667,1.126.78,1.15,2.479.555C117.849,100.583,116.924,100.815,115.937,101.114Zm-.383,1.215.233-.457-1.912-.688-.2.469Zm1.321-1.8.143-.274L115.283,98.8l-.678.562c-1.205-.173-2.243-.321-3.28-.468a1.969,1.969,0,0,0,.613,1.046C113.427,101.426,115.22,100.394,116.874,100.526Zm-8.4-2.488-.276.231a6.431,6.431,0,0,0,2.789,2.55c.136.082.509-.106,1.058-.236Zm3.406.295-2.738-1.867C109.836,97.239,109.879,98.648,111.883,98.333Zm1.378-.027c.807.45,1.54.366,1.815-.551.7.67,1.476.482,2.318.192-.434-.747-.793-1.492-2.005-1.25l-.353.925-3.464-1.015-.23.28A17.423,17.423,0,0,0,113.26,98.306Zm2.488-2.348a1.665,1.665,0,0,1,.544-.055c.458-.014.917-.016,1.568-.026l-1.123-1.413a2.644,2.644,0,0,1-3.582.444C113.878,96.427,114.284,96.556,115.749,95.958Zm4.053-.951-1.9-.807-.22.374C118.619,95.773,118.944,95.87,119.8,95.007Zm2.686-.879-2.744-.383C120.756,95.112,121.494,95.188,122.488,94.128Zm-4.082-13.344a1.4,1.4,0,0,0,2.12.575C120.075,80.444,119.36,80.372,118.405,80.784Zm2.472-1.123a1.734,1.734,0,0,0-2.368-.982C119.344,79.215,119.5,80.161,120.878,79.661ZM118.3,82.277c.281.952.784,1.427,2.008.721Zm.5-2.34c-1.317-1.148-1.354-1.159-2.592-.785C116.959,80.261,117.682,80.481,118.8,79.937Zm-1.724-1.584c-1.162-1.319-1.558-1.432-2.648-.811C116.065,78.641,116.065,78.641,117.077,78.353Zm1.749-.5L116.8,76.822C117.481,78.05,117.941,78.242,118.826,77.858Zm2.22-.484c-.594-.609-.957-1.422-2.2-.769C119.355,77.217,119.663,78.024,121.046,77.374Zm-.887,7.575a2.195,2.195,0,0,0-2.9-.638C118.351,85.343,119.176,85.516,120.159,84.949Zm-4.268-4.179-.118.371c.748.37,1.368,1.261,2.372.6.045-.174.091-.35.135-.525Zm1.185-4.569c-.756-1.052-1.374-1.191-3.164-.643C115.365,76.659,115.717,76.725,117.076,76.2Zm.283-2.318-2.583-.506A1.625,1.625,0,0,0,117.358,73.883Zm.833-1.859c-1.029-1.052-1.341-1.085-3.331-.3C116.474,72.765,116.858,72.794,118.192,72.024Zm-.041-2.127c-.767-.526-1.394-1.245-2.54-.436C116.4,69.972,117.034,70.672,118.151,69.9Zm1.129-1.347c-.32-.025-.645.02-1.323.05.446.391.646.688.943.789a1.547,1.547,0,0,0,.972-.061c.171-.071.193-.388.281-.595A6.369,6.369,0,0,0,119.28,68.55Zm-1.45,1.921c1.048,1.439,2.061,1.57,3.329.484Zm4.6,3.537-1.4-.095c.052.262.061.734.161.748a5.982,5.982,0,0,0,1.251-.057C122.446,74.405,122.44,74.206,122.435,74.007Zm1.149,9.088c-.419-.437-.907-.829-1.573-1.395l.842,2A7.507,7.507,0,0,0,123.584,83.1Zm-1.016,17.142c.372-1.366.372-1.366-.621-1.55C122.026,100.077,122.026,100.077,122.568,100.238Zm-1.892-1.019c.109.055.639-.193.634-.292-.032-.723-1.305-1.176-2.254-.725C119.62,98.568,120.118,98.931,120.675,99.219ZM117.9,102.57l1.836,1.022C119.74,102.339,119.258,102.061,117.9,102.57Zm.174,16.9-1.709-.75c-.026.307-.176.654-.054.914C116.641,120.325,117.169,120.146,118.077,119.466Zm-4.044-1.808-.05-.123-1.073-2.021-3.521-.576c.594.349.962.554,1.316.778.29.183.562.386.842.58a9.187,9.187,0,0,0,1.079.731,12.548,12.548,0,0,0,1.357.509l.05.123-1.115.233c.707.581,1.3,1.067,1.885,1.551C115.692,118.515,115.042,118.035,114.033,117.659Zm-4.553,2.856,3.619.661c-.579-.768-.906-1.72-1.554-1.916-.671-.2-1.423-1.263-2.314-.393C108.527,119.474,111.928,119.369,109.48,120.515Zm-5.971,15.872c-.719.514.079.777.118,1.14l1.718.159,0,.242-1.064.4c.657.474,1.441.78,1.675,1.264.517,1.075,1.279.813,2.506.5a9.134,9.134,0,0,1-1.974-1.491,5.036,5.036,0,0,1-.477-1.873,6.685,6.685,0,0,1-.715-.4c-.665-.482-1.311-.981-1.965-1.473C103.3,135.525,103.706,136.246,103.51,136.386Zm-1.94.453c-1.005-.879-1.719-1.618-3.035-1.6C99.419,135.767,99.753,136.988,101.569,136.84Zm-2.557,1.231.327.853a4.005,4.005,0,0,1,.683.394c.715.634.705.643,1.475-.086l-.859-.735Zm2.158-.978.151,1.172c.337.263.65.549,1.011.785a2.591,2.591,0,0,0,2.883.5l-2.557-1.728Zm5.431.141,2.13,1.9C109.366,137.866,108.453,137.144,106.6,137.234Zm3.22,0c1.047-.745.233-1.228-.134-1.754-.372.139-1.1-.575-1.155.326Zm-5.772-3.07c-.177.768.378.922.96,1.112.493.162,1.015.262,1.513.386l.157.839,1.627.259.016-.8a6.052,6.052,0,0,1-.766-.81c-.89-1.389-2.71-1.564-4.08-2.337C103.63,133.33,104.135,133.8,104.049,134.168Zm1.032-1.307,2.584.93.247-.317c-1.213-.854-1.655-2.4-3.619-2.7C104.587,131.553,104.848,132.244,105.081,132.861Zm2.346-1.488a7.022,7.022,0,0,0,2.186-.73c-.022-.171-.045-.342-.068-.512l-4.99-1.241C105.223,130.074,105.676,131.35,107.427,131.373Zm2.8-5.976c1.353,1.228,2.352,1.409,3.36.616Zm4.8-.015L114.165,124l-.465-.034c-.088.364-.37.813-.206,1.065C113.633,125.246,114.285,125.231,115.031,125.382Zm-5.484,6.472,1.6.315.21-.552-1.468-.528Zm-2.276-2.848a2.417,2.417,0,0,1,2.249.492c.235.17.782.041,1.186.048a6.107,6.107,0,0,0-.426-.874c-.095-.14-.351-.2-.5-.323-1.4-1.223-3.624-.762-5.014-2l-.2.3a14.6,14.6,0,0,0,1.368,1.761A1.959,1.959,0,0,0,107.271,129.006Zm3.89-2.053-1.52-1.264-3.474-.369C106.985,126.943,107.877,127.22,111.162,126.952Zm-3.008-2.005a12.965,12.965,0,0,0,3.443-.1c-.376-.286-.743-.606-1.159-.874-.483-.312-.954-1.172-1.611-.123a5.089,5.089,0,0,1-.9-.295c-.5-.2-.983-.433-1.473-.651l-.388.429C106.75,123.9,107.34,124.747,108.153,124.947Zm4.244-.225.643-1.074-2.2-.46-.17.327Zm.972-1.557,1.681-.6a8.94,8.94,0,0,1-1.417-.283c-.633-.264-1.228-.592-1.838-.895l-.181.259C112.189,122.145,112.764,122.642,113.37,123.165Zm-2.482-5.562c-.081,1.083.886,1.171,1.91,1.26-.445-1.766-1.187-2.1-3.319-1.35Zm-.893,15.908-.8.505,1.133,1.28,1.391-.5Zm.521,6.594c-.562-.157-1.065-.3-1.953-.549l1.091,1.847Zm-1.231,3.487c.08-.32.28-.655.216-.955-.2-.927-.689-1.209-2.182-1.3l1.548,2.141Zm-1.042.531-2.686-.653c.372.622.592.988.849,1.416l1.831-.426Zm-4.5,1.541c.359,1.408,1.527,1.6,2.46,1.768.872.152.979-.4.338-.761Zm3.491,7.108c-.214-.822-.218-1.727-1.74-1.378C105.93,151.977,105.311,153.326,107.23,152.773Zm-2.271-3.91-1.317.539,1.319,1.5C105.948,149.984,105.932,149.687,104.96,148.862Zm-.275,5.8c.622-1.107-1.354-1.745-.074-2.64-.435.12-1.122.4-1.09.474A20.362,20.362,0,0,0,104.684,154.663Zm-1.365,2.856c-.074-.167-.146-.324-.211-.484-.081-.2-.161-.4-.232-.606-.378-1.088-.431-1.1-1.7-.46C102.151,157.69,102.151,157.69,103.319,157.518ZM93.8,170.043c-.651-.968-1.124-1.672-1.751-2.6C92.04,169.332,92.148,169.5,93.8,170.043Zm-4.907-2.4c.392,2.737,1.035,3.191,3.272,2.083C90.219,169.835,89.909,168.595,88.891,167.644Zm6.4.637c.618-1.343-.253-2.074-1.409-2.545.12-.487.363-.875.267-1.2a19.669,19.669,0,0,0-1-2.491c-.331-.724-.979-.8-1.653-.356.748,1.923,1.482,3.79,2.2,5.661A1.37,1.37,0,0,0,95.291,168.28Zm-.967-4.721.49.119c.2-.291.621-.616.563-.868-.462-1.991-.947-2.45-2.388-2.418Zm1.854-.335.978-1.037c.388.423.769.836,1.149,1.25l.465-.209-1.236-2.437-.393.1c-.075.233-.149.468-.224.7l-.254.028c-.243-.578-.5-1.151-.729-1.731-.4-1.014-.393-1.016-1.46-1.117C95.018,160.191,95.555,161.593,96.178,163.224Zm-.52,1.084c-.026.088.134.292.253.322.939.236,1.886.441,2.923.677.29-1.006-.743-1.237-1.468-1.545a2.69,2.69,0,0,0-1.365.082C95.844,163.876,95.709,164.133,95.659,164.308Zm4.08-.557.365-.141a2.981,2.981,0,0,0-1.865-2.557Zm-3.981-5.928a1.662,1.662,0,0,1,.715,1.642c-.054.578.408,1,1.336.639-.734-2.631-1.088-3.083-2.64-3.048A3.8,3.8,0,0,0,95.757,157.823Zm1.709-1.056a4.247,4.247,0,0,0,2.717,4.05c-.2-.442-.41-.884-.6-1.33a13.014,13.014,0,0,1-.94-2.319,2.087,2.087,0,0,0-2.281-1.9C96.79,155.823,97.464,156.3,97.466,156.767Zm-.141-2.182c-.343-1.513-.769-1.837-2.71-1.992C95.643,153.246,95.456,154.737,97.325,154.585Zm-.574-2.475c.13.279.684.424,1.042.63l.367-.253c-.281-.45-.441-1.017-.87-1.323a32.027,32.027,0,0,0-2.906-1.686.323.323,0,0,0-.243-.022c-.955.562-1.741-.093-2.61-.231a17.618,17.618,0,0,0-2.381-.065l-.053.344a8.238,8.238,0,0,0,4.048,1.373C94.51,150.868,96.046,150.6,96.751,152.11Zm.976,1.381c.479,1.08.939,2.166,1.465,3.231.063.127.494.129.753.189.064-.237.253-.51.168-.7a16.436,16.436,0,0,0-1.089-2.1,5.406,5.406,0,0,0-.852-.86Zm2.111.807c.579,1.187.875,1.258,1.434.65q-.335-2.017-.668-4.032l-.7.2-1.6.24C98.847,152.387,99.367,153.334,99.838,154.3Zm1.967,5.049c.114-.011.3-.519.235-.564a4.949,4.949,0,0,0-.994-.418c-.108-.041-.227-.063-.392-.108l.415-.519-.144-.241-1.5.361c.39.592.568,1.124.988,1.414A2.511,2.511,0,0,0,101.805,159.348Zm-1.468,8.216c.1-.778.1-.778-2.184-1.5C98.479,166.873,99.338,167.17,100.337,167.564Zm-2.569.708c-.042-.692-.237-1.338-1.859-1.288l1.352,1.755C97.438,168.583,97.777,168.422,97.767,168.272Zm-3.924.716c.571.854.365,2.073,2.311,2.018C95.237,170.36,95.992,168.681,93.844,168.988Zm.436,4.8c.066.049.544-.289.833-.449l-1.269-.9-.506.377A6.869,6.869,0,0,0,94.28,173.79Zm-.5-1.752c-.128-1.233-.954-1.574-2.445-1.119ZM87.6,170.9c1.358,1.4,3.036,2.089,4.287,1.137A4.478,4.478,0,0,0,87.6,170.9Zm-5.551-2.325c1.9,1.7,3.6,3.22,5.528,4.944C88.109,171.832,84.3,168.515,82.048,168.57Zm9.027,8.188c.181-1.636-.085-1.815-1.927-1.332Zm-7.825-4.466,2.927,2.265,2.442.44C88.123,173.842,84.536,172,83.25,172.293Zm4.92,4.2c-1.773-.683-3.174-1.884-5.077-2.178l-.162.269c.987.817,1.972,1.633,3,2.49l.131-.825C86.742,176.654,87.172,177.639,88.17,176.5Zm-13.238-2.534-2.728-.49C73.188,174.882,73.774,175.014,74.932,173.961Zm-1.092,2.053a8.012,8.012,0,0,0,6.24,2.182c-1.165-.895-2.211-1.744-3.315-2.535C75.195,174.536,74.99,174.577,73.84,176.015Zm.9-2.844a15.436,15.436,0,0,1,2.436,2.134c.962,1.333,2.455.892,3.706,1.246l.219-.267q-2.431-2.19-4.864-4.378l-.24.249-2.048.189C74.228,172.643,74.456,172.928,74.737,173.171Zm4.617,3.61c1.326,1.553,4.271,2.342,5.767,1.708l-1.869-1.3a3.31,3.31,0,0,1-.972.117C81.388,177.2,80.513,177,79.353,176.781Zm1.481,3.376,2.73.087C82.774,179.266,81.984,179.24,80.834,180.157Zm6.2-.825-2.637-.168-.025.313C85.843,180.3,85.961,180.3,87.038,179.332Zm-1.808,1.17-2.566.216C83.5,181.391,84.3,181.725,85.231,180.5Zm-3.516.59-3.63-.562C79.245,181.828,79.869,181.935,81.715,181.092Zm-3.671.434c-.908-1.062-1.362-1.253-4.741-1.988C72.87,181.219,74.615,181.463,78.045,181.526Zm-5.226,1.483c-1.337-.827-2.792-1.526-4.08-2.4a1.416,1.416,0,0,0-2.018.047c.351,1.057,1.332.3,2.144.452l-.768.67c.864.5,1.91.8,2.334,1.4.858,1.218,2.024,1.059,3.482.957A6.438,6.438,0,0,0,72.818,183.009Zm-3.378,1.532-1.074.453.039.2,3.4.071,0-.264a7.637,7.637,0,0,1-1.942-1.3c-.887-1.178-2.082-.909-3.6-.838ZM66,184.974l-.165.318,2.949,1.062C68.27,184.811,67.1,184.951,66,184.974Zm7.385,1.3v-.57l-3.451-.006c0,.163-.011.327-.016.49Zm-2.889,1.113.063-.417-2.621-.3C68.815,187.815,69.684,187.473,70.495,187.391Zm-3.2-.009c-.708-1.15-2.012-1.233-3.447-1.317C64.245,187.208,65.891,187.822,67.295,187.383Zm-4.966-6.66c-1.008-.568-1.971-1.072-2.88-1.636-1.044-.648-1.983-1.427-3.081-2a9.279,9.279,0,0,0-2.232-.512l-.206.41q1.095.523,2.19,1.047c.467.222,1.365.508,1.335.65-.211.992.8,1.559,1.143,2.651-1.4-.5-2.608-.938-3.813-1.373l-.23.434,3.094,1.285c.378.157,1.056.291,1.083.482.211,1.46,1.819,1.878,2.859,2.662a4.056,4.056,0,0,0,3.6.767c-.946-1.358-3.057-.43-4.164-1.784l2.206.415.146-.268c-.782-.506-1.682-.655-2.3-1.612-1.186-1.847-1.5-1.711-1.306-2.155a3.61,3.61,0,0,0,3.817,1.542l-1.827-.42Zm.429,1.62a2.286,2.286,0,0,0,3.121.672Zm2.834,6.048a10.889,10.889,0,0,0-1.841-1.547c-2.37-1.245-4.215-2.991-6.368-4.43a14.085,14.085,0,0,0-3.459-1.144l-.071.246c1.55,1.223,3.033,2.51,4.666,3.65,1.58,1.1,3.4,1.973,4.95,3.1A1.97,1.97,0,0,0,65.592,188.39Zm-5.161,1.1a1.875,1.875,0,0,0-2.477-.527l2.353.847Zm-7.508-1.5c1.727,1.688,3.188,2.208,5.121,1.971l.131-.386Zm7.149,4.061c-.333-1.6-.757-1.787-2.449-1.245Zm-4.366,2.858c0-.183,0-.365,0-.547l-2.246-.055c.01.187.02.372.031.558ZM45.18,192.8c-.677,1.139-.161,1.91,1.942,2.35Zm.629,3.776,2.761,1.138.381-.544-2.824-1.142C46.021,196.214,45.914,196.4,45.809,196.579Zm1.976-2.63c-.229-2.1-.269-2.127-2.445-1.736Zm1.434-1.343c.232-.457.388-.763.623-1.221l-2.75-.769-.224.351C47.634,191.5,48.4,192.035,49.219,192.606Zm1.424-2.461c-1.116-1.024-1.116-1.024-2.966-.714C48.8,190.532,49.349,190.656,50.643,190.145Zm-.527,1.1,2.066.592c.332.895,1.607.386,2.647.474L51.211,190.3Zm2.625,2.153-2.389-1.357C50.129,193.35,51.207,193.783,52.741,193.394Zm.684,2.648c.108.011.272-.358.547-.743l-2.619-.041-.1.412C51.973,195.8,52.693,195.963,53.425,196.042Zm-5.055-3.277c.482,1.805.872,2.091,2.6,1.816Zm2.492,3.208.037-.344-1.719-.026-1.848-1.051C47.978,196.108,49.077,196.473,50.862,195.973Zm-1.933,5.516.147-.265c-.908-.758-1.347-.834-2.351-.147Zm-9.836,2.9c.871.522,1.783,1,2.678,1.493l.331-.208c-1.538-.973-2.932-2.013-2.805-3.721l2.313.971.163-.222-.874-.651,4.1.372.058-.291c-1.155-.251-2.321-.476-3.465-.758-2.8-.693-2.8-.7-2.926-1.668a7.273,7.273,0,0,0,4.9,1.1c-2.019-1.518-4.467-1.332-6.269-2.353a3.223,3.223,0,0,0-.259.307.487.487,0,0,0-.073.2C36.826,201,36.79,203.013,39.093,204.394Zm5.455-4.547a4.812,4.812,0,0,0-2.794-1.4C42.422,199.123,42.759,200.2,44.548,199.848Zm-7.554-2.555a6.718,6.718,0,0,0,4.035,1.785c.205.015.45-.413.678-.648l-4.858-2.093C36.918,196.854,36.844,197.162,36.994,197.293Zm-4.076-40.785a78.911,78.911,0,0,1,.076,8c-.059,1.669-.469,3.323-.659,4.989s.89,3.216.639,4.892c-.039.265.24.564.355.853.07.174.217.4.141.531a1.661,1.661,0,0,0,.206,2.139c-.3,1.094-.557,1.88-.7,2.683-.026.149.412.364.648.538.161.118.386.2.492.338.038.052-.179.339-.3.347-1.424.086-.8.95-.986,1.664l1.638-.134c.139,1.085-.941.7-1.494.865-.09,1.194.1,1.36,1.395,1.327.558-.014,1.115-.007,1.711-.01l-.378-1.01c1.419.527,2.184,2.007,4.058,1.261L35.2,183.52l.285-.874,2.094.929.177-.275c-.952-.78-2.421-1.186-2.82-2.369.772.032,1.387.057,2.311.1-1.075-.879-1.86-1.52-2.647-2.16l.338-.34c1.751,1.332,3.2,3.2,6.2,2.326l-.1.326-1.106.6,2.508.9-.1.292-5.741-1.7c1.28,1.785,3.526,2.668,4.921,2.173.061.378.118.727.189,1.171l-3.442-.521-.151.394,2.331,1.052-.159.447,1.349-.15c-.221.621-2.428,1.223-3.168.922a11.619,11.619,0,0,0-5.428-.649c-.118,1.135.689,1.364,1.728,1.366a10.366,10.366,0,0,1,1.115-.053c1.53.178,3.056.391,4.582.591l1.01.134-.034.313-3.8-.143-.163.252,3.752,2.127a1.342,1.342,0,0,1-.914-.066,10.758,10.758,0,0,1-2.917-1.671c-1.113-1.223-2.547-.806-3.884-1.054-.049,1.344.047,1.4,1.526,1.29.565-.044,1.142.014,1.713.026l-.014.482-2.782-.162c.037,1.969,2.83,1.815,3.4,3.3-.737-.39-1.475-.779-2.278-1.2-.36,2.122,2.356,2.219,3.411,3.73l-2.291-.825a1.727,1.727,0,0,0,.718,1.019,10.426,10.426,0,0,0,3.822,1.9c.592.13,1.07.6,1.66.783a1.681,1.681,0,0,0,1.172-.145c.3-.187.388-.6.565-.9l1.6.082.086-.311-1.573-.415c-.15-.472-.252-.764-.333-1.06s-.3-.789-.184-.854c1.3-.727.433-1.131-.608-1.611.853-.118,1.441-.2,2.021-.276l-1.559-1.39,2.9.216.233-.425a13.683,13.683,0,0,0-1.4-.895c-.876-.43-1.811-.774-2.685-1.205-.235-.116-.338-.418-.5-.633l.237-.182a11.24,11.24,0,0,0,4.861,1.883c-.565-1.854-3.2-1.643-4.308-3.283l1.054.378.2-.082-.653-.628c1.7.729,2.669,2.4,4.935,1.929l-1.183-1.095c1.461,0,1.89.815,2.619,1.38a16.86,16.86,0,0,0,3.754,2.106,25.909,25.909,0,0,0,3.588.949l.243-.442c-2.99-.845-4.862-2.9-7.415-4.212l.2-.26,1.06.253c-1.316-1.428-3.554-2.073-4.339-3.876a31.782,31.782,0,0,1,4.177,2.9,8.322,8.322,0,0,0,6.906,1.978,2.244,2.244,0,0,1,2.4.734c.665,1.047,1.781.591,2.646.874l-2.048-1.306.2-.237,1.4.5c-2.283-1.7-4.271-3.234-6.325-4.7-1.213-.868-2.61-1.564-3.773-2.472a2.927,2.927,0,0,0-3.073-.568c.538,1.282,2.669,1.423,2.985,2.862a17.869,17.869,0,0,1-3.4-2.492,2.077,2.077,0,0,0-2.282-.377c1.542,1.134,2.9,2.137,4.515,3.323A6.27,6.27,0,0,1,48,182.633c-1.175-.8-1.631-2.318-3.517-2.459l6.191.149a2.449,2.449,0,0,0-2.547-1.289,22.351,22.351,0,0,1-3.267-.152l.02-.3,6.451-.09-.9.719,1.572.965.428-.318-.981-1.4c-.053-.245-.1-.489-.157-.735,1.16,1.553,2.981,1.77,4.966,1.789a4.9,4.9,0,0,0-1.665-1.205,10.4,10.4,0,0,0-2.15-.312l.05-.268,1.382-.221-2.708-2.448,3.6,1.128.151-.307a28.01,28.01,0,0,1-4.427-3.741l.273-.21,6.571,5.145,1.178-1.508-4.681-1.683.15-.278,1.422.162c-.865-.686-1.531-1.158-2.115-1.693-.536-.493-.982-1.053-1.467-1.584l.145-.049,7.522,5.61c-1.2.166-1.353.468-.709,1.425a7.2,7.2,0,0,0,5.347,2.918,5,5,0,0,0,1.55-.392c.836.664,1.505-.272,2.125-.505l3.8,1.934a12.443,12.443,0,0,0,1.058.983c.375.273.809.489,1.218.73l1.063-.632c-.788-.9-2.474-1.192-2.7-2.524-1.763-.159-2.743-.753-3.131-1.875L72,179.463l-.224-.879,2.871.859c-.268-.6-.423-.946-.578-1.294l.276-.257a6.586,6.586,0,0,0,5.388,2.114,7.909,7.909,0,0,0-1.177-.93c-1.414-.7-2.856-1.36-4.3-2.018-.8-.363-1.3-.8-.661-1.586a4.887,4.887,0,0,0-.617-.3,3.138,3.138,0,0,0-.739-.149,24.2,24.2,0,0,1-8.21-2.176,35.589,35.589,0,0,1-4.043-2.436c-1-.6-2.1-1.1-3.034-1.761a12.431,12.431,0,0,1-1.665-1.67l.333-.225c.136.108.267.222.413.323a65.043,65.043,0,0,0,7.148,4.8,54.006,54.006,0,0,0,7.723,2.659,6.655,6.655,0,0,0,1.262.139,2.411,2.411,0,0,0-2.12-1.752,21.307,21.307,0,0,1-2.547-.681c-1.566-.585-3.087-1.251-4.627-1.884l.221-.393c2.431.875,4.861,1.75,7.43,2.673a2.911,2.911,0,0,0-.117-.417c-.845-1.492-2.713-1.411-4.2-1.922-.569-.2-1.108-.455-1.661-.684l.159-.274c1.272.382,2.545.763,3.908,1.171-.09-1.593-2.162-1.074-2.83-2.288l4.381,1.272c-.241-2.163-3.017-1.991-4.19-3.424l5.916,2.128-1.342.281c.621.773,1.178,1.466,1.846,2.3l-3.206-1.154c.294,1.671,2.021,1.392,2.928,2.106l-1.421-.179c.611,1.444,1.374,1.815,3.213,1.607-1.174-1.853,1.22-.917,1.8-1.618l-1.574-.919c-.267-.694-.5-1.3-.8-2.069l2.17.343-.049.279-1.267,0-.17.252a61.816,61.816,0,0,0,9.84,6.771c-4.63-3.918-6.331-5.728-6.472-7.127l1.331-.466-2.271-2.283,1.959-.182.036.178-1.04.487a14.18,14.18,0,0,0,1.423.992c.893.471.735.845-.053,1.223-.216.1-.435.2-.639.3.317,1.668,3.411,4.569,4.972,4.509a8.566,8.566,0,0,1-.928-.672,4.123,4.123,0,0,1-.487-.694l.217-.127c.23.093.461.188.978.4-.623-.655-1.081-1.076-1.454-1.545a14.411,14.411,0,0,1-.863-1.355c2.368,2.218,2.368,2.218,3.716,1.768l-3.415-4.416.233-.15L83.8,168.38l.243-.909a24.918,24.918,0,0,1,1.766,2.08c.675,1,1.472.936,2.449.4-2.612-2.66-2.612-2.66-2.424-3.07l2.352,2.041a3.376,3.376,0,0,0-.59-2.1,9.717,9.717,0,0,0-2.093-1.374l2.735.43.069-.885c1.655.757,1.113,2.714,3,3.522-.36-1.478-.67-2.748-.981-4.017l.528-.1c.113.343.247.683.337,1.03.211.818.21,1.778,1.82,1.658-.779-1.381-.456-3.173-2.363-3.962,1.015-1.643-.929-1.971-1.97-2.828l3.811.715c-.36-2.408-2.954-1.573-4.237-2.432.273-.875.791-.974,1.675-.525a12.8,12.8,0,0,0,2.417.943,4.2,4.2,0,0,0,1.368-.117,3.767,3.767,0,0,0-.812-.923c-.546-.323-1.226-.483-1.806-.772a5.67,5.67,0,0,0-3.834-.6,10.893,10.893,0,0,1-3.131.042c-3.377-.339-5.852-2.116-8.322-3.847a14.373,14.373,0,0,1-1.75-1.7l.265-.208c.272.193.539.388.815.579,2.017,1.389,3.7,3.136,6.236,3.964,1.756.574,3.587,1.231,5.4.675a7.975,7.975,0,0,1,3.7.08c1.325.182,2.608.579,3.913.872.043.01.118-.081.257-.182-.171-.177-.3-.439-.522-.52A23.829,23.829,0,0,0,90.144,155c-1.932-.349-3.941-.369-5.9-.614a12.7,12.7,0,0,1-7.57-3.56,2.883,2.883,0,0,1-.437-.93,13.227,13.227,0,0,0,11.98,3.921,3.955,3.955,0,0,0,1.1.528c.659.069,1.364-.1,2,.025a16.715,16.715,0,0,1,2.438.784,4.373,4.373,0,0,1,.923.477c.441.29.852.613,1.472,1.067.022-2.4-2.282-2.627-3.717-3.212-1.557-.635-3.532-.551-5.659-.822,2.667-.714,4.984.263,7.362.229a1.543,1.543,0,0,0-1.553-1.406c-1.385-.093-2.775-.127-4.161-.205a8.077,8.077,0,0,1-1-.181l.055-.253,2.069-.109c-1.212-1.207-2.393-2.383-3.572-3.56l.388-.265a6.4,6.4,0,0,0,1.505,1.466,7.04,7.04,0,0,0,2.139.29c-1.644-1.561-2.181-2.305-1.863-3.119,1.527,2.5,4,3.585,7.178,3.485.869-.027,1.323.13,1.683.762.53.934,1.4,1.106,2.664.652-.292-.35-.45-.757-.757-.866a12.923,12.923,0,0,0-3.678-1.065,8,8,0,0,1-4.167-1.4,5.435,5.435,0,0,1-2.785-3.294c.86.723,1.548,1.569,2.4,2.277,1.391,1.153,2.864,2.279,4.624,1.675l3.218.982.318-.388-2.03-1.456,1.156-.618c.859,1.26,2.307,1.242,3.86,1.409-.778.976-1.762.082-2.5.351-.226,1.214,1.186.858,1.934,1.3l-1.094.505,1.976,3.954.261-.09c-.029-.766-.06-1.531-.084-2.126l1.876-.012c-.3-1.493-2.305-2.354-1.394-4.2.408.6.651.955.933,1.369l1.064-.617-2.115-2.222c-.28-.482-.625-1.076-1.059-1.821,1.005.485,1.551,2.254,2.814.653l1.2.332c-.057-1.623-1.534-1.727-2.857-2l1.25-.5-1.808-1.937c1.7.689,2.38,2.993,5.154,2.046-.667-1.189-1.366-2.157-3.054-2.232a1.266,1.266,0,0,1-.775-.276c-.77-.865-1.529-.365-2.163.037-.328.209-.4.7-.528.96l-1.536-.553a2.481,2.481,0,0,0,2.789,2.021l-.144.345-2.624.4c.666.955,1.253,1.8,1.907,2.738-.509.517-2.506.055-3.143-1.073l1.451.343.3-.166a8.606,8.606,0,0,0-1.072-1.654c-1.035-1.025-2.191-1.964-3.272-2.958-.09-.082,0-.3.018-.465,1.411.71,2.117,2.26,4.023,2.418-.3-.629-.643-1.439-1.2-1.564-1.065-.238-1.03-.767-1.049-1.386l2.551.659L99.011,139c-2.321-2.528-5.717-2.894-9.413-3.309l1.647,1.178c-1.783-.253-2.5-1.052-1.907-1.939.308.085.623.189.949.254s.641.086,1.32.172c-1.278-.858-2.772-1.219-2.315-2.662l1.962.3c-2.943-2.257-4.785-4.587-4.5-5.7a9.114,9.114,0,0,1,.924,1.174,4.831,4.831,0,0,0,4.569,2.911,7.507,7.507,0,0,1,1.557.335c-1.036-.668-2.25-1.036-3.121-1.709-2.062-1.6-2-1.656-1.869-2.444q1.493,1.419,3.061,2.909c.761-.96,1.089-1,1.982-.28l-.614.157c.508.586,1,1.158,1.688,1.954l-4-.653-.114.35c.6.315,1.43.516,1.749.967.6.844,1.051.823,1.7.048l1.381,1.083-.178.3-5.549-1.063-.176.345,2.19,1.031c.28.133.815.29.8.393-.133,1.02.833.708,1.362.756a6.81,6.81,0,0,0,1.5-.146l2.455,1.895c-.037-.4-.05-.557-.061-.677l1.482.265c-.2-1.143-3.4-1.393-.9-2.911l-2.1-1.779.28-.263a14.331,14.331,0,0,1,1.409.919c1.126.936,2.175,1.94,3.334,2.847a4.5,4.5,0,0,0,1.422.426c-.517-1.22-1.77-1.938-1.692-3.2l-.8-.983,1.418-.208-2.421-2.236c1.747.364,2.5,2.125,4.715,2.089-.295-.387-.44-.6-.612-.8s-.41-.365-.559-.575c-.467-.665-.172-.833,1.569-.756-.77-.842-1.454-1.589-2.137-2.337l.265-.17,2.147,1.017.184-.235-3.065-3.228.235-.14,3.524,1.637.3-.29a15.043,15.043,0,0,1-1.93-1.838,2.649,2.649,0,0,0-2.535-1.1c-1.359.1-1.156-.532-.958-1.166,2.684-.229,3.521,2.2,5.832,2.547a8.924,8.924,0,0,0-2.454-2.708,19.882,19.882,0,0,0-4.017-1.323c2.832-.48,4.442.952,6.314,2.061,0-.319.02-.394-.012-.441-.082-.123-.2-.232-.289-.35-1.182-1.492-3.009-2.112-4.955-2.589a7.66,7.66,0,0,1-1.094-.449l.181-.312c.4.087.816.14,1.2.264a2.831,2.831,0,0,0,3.208-.73,4.716,4.716,0,0,1,.419-.354l.224.173-1.416,1.3a8.25,8.25,0,0,1,1.273.844c.727.721,1.336,1.525,2.083,2.228a2.288,2.288,0,0,0,1.273.548c1.113.08,2.24.034,3.562.039l-2.418-2.017.248,1.233c-.2.021-.431.112-.582.052-.95-.372-1.886-.769-2.813-1.181-.167-.074-.4-.342-.38-.366.661-.681-.256-.939-.505-1.38-.117-.206-.055-.482-.1-1.019.812.767,1.368,1.289,1.918,1.814.584.555,1.161,1.116,2.093.161a5.894,5.894,0,0,0-1.248-.866c-1.9-.7-1.91-.676-1.828-2.574a9.388,9.388,0,0,0,1.177,1.155c.388.268.783,1.011,1.493.231-.887-.978-2.485-1.521-2.627-3.023,2.643,1.676,2.643,1.676,3.669,1.363-.906-1.158-3.059-1.481-3.133-3.2.768.723,1.489,1.433,2.745.929-.616-.562-1.6-1.076-1.813-1.755a1.357,1.357,0,0,0-1.421-1.037c-2.9-.242-4.862-1.874-6.979-3.275-.059-.039-.018-.182-.025-.275a.9.9,0,0,1,.28-.029,1.032,1.032,0,0,1,.326.154,16.769,16.769,0,0,0,7.293,3.062c.281.044.724.284.741.455.136,1.325,1.437,1.707,2.513,2.3.75.415,1.418.931,2.123,1.4l2.533.52.186-.392A7.274,7.274,0,0,0,113.3,114.1a2.152,2.152,0,0,1-1.817-1.234q-1.281-.721-2.561-1.444l.348-.4,2.15,1.446c-.117-.532-.235-1.065-.363-1.644.691.182,1.391.369,2.091.554l.117-.236-1.946-1.712.179-.263,2.341.339L111.8,107.15l2.662.659.184-.291a12.665,12.665,0,0,1-1.642-1.4,9.194,9.194,0,0,1-.929-1.7c-.778.413-1.921-.176-2.776-1.582l2.3,1.451.135-.146-.528-.574c.632.444,1.432.839,1.672,1.4a1.642,1.642,0,0,0,2.278,1.04c-.762-.874-1.513-1.736-2.263-2.6l.279-.222a1.666,1.666,0,0,0,2.526.532c-.911-.353-1.6-.634-2.3-.885a6.214,6.214,0,0,1-1.167-.339c-1.2-.767-2.356-1.59-3.529-2.39-1.757-1.2-3.524-2.384-5.269-3.593-.8-.557-1.567-1.154-2.347-1.734l.306-.313,5.043,3.266.252-.246L105.5,95.923l3.414,1.867.229-.221c-.548-1.041-1.706-1.639-2.669-2.394q-1.935-1.513-3.732-3.147c-.3-.272-.334-.742-.49-1.121l.388-.16a9.171,9.171,0,0,0,6.223,4.665c.167-.2.335-.413.525-.645l1.262.9c.214-.812.367-1.4.526-2l3.4,1.053-1.39-1.992c1.037.283,2.185.3,2.6.769.871.986,1.585.5,2.42.345-.259-1.747-2.33-.273-3.05-1.357l3.641-.444a1.27,1.27,0,0,0-1.932-.606c-1.056.816-1.666.7-2.41-.462l5.31-.88.044-.247-1.785-.643c.118-.7.23-1.368.361-2.148l-2.326.189,1.02,1.132-.391.286-3.539-3.013.328-.284L115.44,86.8l1.5-.553-1.353-.565.205-.122-1.534-2.089,3.855.215c-.853-1.6-2.551-.763-3.739-1.47.558-.127.935-.213,1.6-.363l-4.613-2.111a1.294,1.294,0,0,0-.637-1.985c-.784-.418-1.526-.891-2.288-1.339l-1.335.648,2.16,2.219-2.959-.935-.15.215.75.708a2.272,2.272,0,0,1-2.542.584,22.021,22.021,0,0,1-7.4-4.439,5.514,5.514,0,0,1-.755-1.058l.286-.149c.9.77,1.756,1.585,2.716,2.3s2.01,1.32,3.022,1.972l.441-.4-6.315-5.9.256-.2c1.06.77,2.165,1.5,3.169,2.321a9.644,9.644,0,0,0,3.314,2.2c-1.21-2.311-3.951-3.677-5.092-6.029,1.6,2.026,3.94,3.269,6.331,4.47-.986-2.157-3.814-3.116-4.88-5.21A21.725,21.725,0,0,0,106,73.775a2.649,2.649,0,0,0-1.123-.917,6.528,6.528,0,0,1-3.576-3.827,1.658,1.658,0,0,1-.1-1.131,1.289,1.289,0,0,1,.841-.759,1.775,1.775,0,0,1,1.065.571,2.485,2.485,0,0,1,.455.87,3.874,3.874,0,0,0,2.847,2.245,4.139,4.139,0,0,1,.7.311c-2.84-.037-3.922-1.67-4.5-3.78-1.058,1.083-.7,2.346.777,3.727,1.755,1.645,3.6,2.122,5.02,1.4a26.976,26.976,0,0,1,2.64,1.741c1.213,1.017,1.364,1.086,3.288.219a11.141,11.141,0,0,0-2.81-1.3c-1.121-.166-1.2-.773-1.466-1.395l1.472.831.087-.163-.708-1.137c1.422.359,1.794,2.267,3.99,1.289-1.369-1.041-3.047-1.717-3.61-3.264,1.384.129,1.908,2.206,4.032,1.312l-5.757-4.265.312-.3c1.009.624,2.091,1.182,3.011,1.889,1.47,1.131,1.683,1.2,3.655.337l-1.591-1.051.058,1.2c-.307-.193-.473-.278-.613-.387-1.2-.945-2.383-1.908-3.612-2.829a2.238,2.238,0,0,0-1-.268,15.359,15.359,0,0,1-3.409-.4,19.216,19.216,0,0,1-7.3-4.351c-.579-.6-1.07-1.267-1.633-1.939l-1.283.791c-.5-.488-.99-.918-1.411-1.391-.831-.935-1.656-1.876-2.409-2.856a2.673,2.673,0,0,1-.267-1.068l.333-.079c.745,1.24,1.175,2.662,2.888,3.376a29.8,29.8,0,0,0-2-4.07c-.408-.714-.445-.7.1-.956,1.032,1.242,2.052,2.472,3.072,3.7l.6-.279-2.621-4.458.3-.106q1.615,1.681,3.228,3.361l.351-.217a10.466,10.466,0,0,0-1.151-2.068c-1.159-1.322-1.217-1.288-.986-1.773,1.316.343,1.385,2,3.363,2.153l-2.5-3.937c2.379,1.06,2.9,2.776,3.517,4.405a6.086,6.086,0,0,0,2.728,3.237,2.678,2.678,0,0,1,.49.476l-.2.2-2-1.015c-.13.256-.366.541-.3.61.774.759,1.6,1.487,2.4,2.214-.595.361-2.137-.653-3.432-2.431.783-.5.431-2.866-.554-3.271l-.994.243c.348,1.5.682,2.937,1.015,4.378l-.505.15c-.124-1.3-.079-2.676-2.018-3.07.259.493.78,1,.721,1.451a4.288,4.288,0,0,0,2.09,4.313,41.744,41.744,0,0,0,5.211,3.212,10.025,10.025,0,0,0,4.054.981,4.309,4.309,0,0,1,2.127.478c1.729.9,3.267,2.5,5.8,1.311-.612-.31-1.379-.936-1.692-.807-.786.321-1.067-.081-1.523-.356-1.1-.666-2.073-1.64-3.7-1.187-.138.038-.327-.065-.5-.081a14.313,14.313,0,0,1-6.281-2.418,20.63,20.63,0,0,1-3.3-3.174l.392-.334c2.83,2.7,5.757,5.258,10.433,5.483,0-.313-.009-.573-.011-.762l5.574,2.54.261-1.129-2.358-1.247c-.979.159-1.371-.054-1.94-1.439,1.9.1,3.71,1.047,5.557.316-1.338-.483-2.7-.826-4.038-1.233a1.874,1.874,0,0,1-1.02-.661c-.136-.243.116-.635.147-.763l3.406.946.236-.4c-.763-.446-1.563-.853-2.276-1.348-.746-.517-1.407-1.119-2.1-1.683l.321-.274.9.408c.822-1.16-1.057-1.468-1.089-2.326,1.218-.011,2.313,1.408,3.721.021l-3.656-.8.09-.3.92-.081a2.407,2.407,0,0,0-1.017-.829,7.381,7.381,0,0,1-1.108-.614c-1.5-1.2-2.74-2.685-5.044-2.933a.994.994,0,0,1-.613-.466c-.506-.895-.966-1.806-1.434-2.714-.7-1.364-1.4-2.73-2.182-4.258-.468.409-.677.576-.864.758a79.017,79.017,0,0,1-5.909,5.7c-3.163,2.508-6.589,4.789-9.954,7.116a9.769,9.769,0,0,1-2.11.8c-.095.186-.127.433-.291.548C80.48,58.145,77.787,60,75.11,61.866a42.993,42.993,0,0,0-5,3.605,78.948,78.948,0,0,0-6.048,6.552,30.527,30.527,0,0,0-5.315,9.725,16.394,16.394,0,0,0-.421,1.885L60.111,82.3l.331.172a3.971,3.971,0,0,1-.269.923c-1.144,1.991-2.225,4.011-3.507,5.938C55.591,90.945,54.272,92.446,53.06,94a13.7,13.7,0,0,1-1.124,1.8c-1.863,2.193-4.069,4.221-5.607,6.559-2.252,3.427-4.038,7.069-6.035,10.616a6.618,6.618,0,0,1-.646.812,8.515,8.515,0,0,1-.321,1.551,84.106,84.106,0,0,0-4.8,16.641c-.526,2.914-.94,5.842-1.5,8.752C32.029,145.976,32.568,151.238,32.918,156.508ZM103.27,134.29a1.485,1.485,0,0,0-1.709-1.491c-.095,0-.189.28-.285.446C101.867,133.554,102.463,133.866,103.27,134.29ZM97.035,56.5a10.643,10.643,0,0,0-1.765-1.053,14.948,14.948,0,0,0,.559,1.793,4.776,4.776,0,0,0,.72.893c.243-.209.634-.392.694-.634A1.126,1.126,0,0,0,97.035,56.5Z" transform="translate(-30.801 -24.033)"/><g transform="translate(110.407 7.835)"><path class="a" d="M140.118,72.845c.177.257.52.348.52.782.263.086.783.258.783.52,0,.086,0,.348-.258.348,0,.172.258.349.258.52.177.349.262.7.782.869.349.176.96.434.963.611a1.628,1.628,0,0,1,.349.691c.257.258.52.258.954.52.172,0,.172.172.348.263a5.315,5.315,0,0,0,2.084.343c3.3,0,7.555-2,9.205-4a7.955,7.955,0,0,0,1.735-5.132c0-4.168-2.437-8.77-4.268-12.157-1.65-3.215-2.432-5.56-2.437-7.3,0-3.648,3.215-4.779,8.336-5.651.262,0,.434.086.606.086.872,0,1.306-.343,1.306-.868,0-1.04-1.65-2.518-3.739-2.518-7.125,0-15.113,4.359-15.108,12.266,0,2.255.7,3.819,2,6.423,1.65,3.478,3.744,7.04,3.744,9.558,0,2.609-2.342,3.476-4.6,3.476a4.017,4.017,0,0,1-2.609-.691.659.659,0,0,1-.344.171c-.348,0-.525-.606-.958-.606,0,.435.263.52.348.783Z" transform="translate(-116.272 -28.039)"/><path class="a" d="M163.933,74.671c4.693,0,8.508-5.137,12.066-11.48v.439c0,6.949,2.528,10.245,8.7,10.24h.7c2.2-.119,4.423-1.493,6.512-3.379-.028.136-.059.289-.087.423,0,.868-2.509,11.212-3.12,11.823a1.391,1.391,0,0,0-.257.692c0,.439.52.7,1.215.7,2.433,0,7.908-2.442,8.075-5.57,0-.086.086-.171.086-.257a.319.319,0,0,0,.091-.263,7.734,7.734,0,0,0,.868-3.3c0-.177,1.559-6.172,1.559-6.777,0-7.651,8.4-31.463,15.181-32.507a3.2,3.2,0,0,1,3.3,3.559c0,4.688-11.2,6.176-11.193,14.951,0,6.085,7.216,9.381,7.221,14.074,0,2.78-1.821,3.734-4,3.734a12.467,12.467,0,0,1-4.6-1.041c-1.307-.6-2.609-1.9-3.043-1.9-.263,0-.263.954-.263,1.131,0,4.254,5.395,7.378,9.3,7.373,6,0,11.99-4.355,11.985-10.7,0-4.693-3.92-8.422-6.352-11.289a5.317,5.317,0,0,1-1.569-3.385c0-4.254,8.508-6.611,9.548-12.433a4.292,4.292,0,0,0,.086-1.045c0-4-3.739-8.075-9.911-8.07h-.349c-14.512.3-19.321,18.516-22.22,32.483-3.111,4.082-6.376,7.85-7.726,7.85-.7,0-.958-1.559-.958-4.082,0-5.036,2.074-14.941,2.509-16.421a1.74,1.74,0,0,0,.085-.609c0-1.564-2-1.822-3.3-1.817h-1.126a3.762,3.762,0,0,0-2.609,1.131c-1.912,1.735-9.2,15.3-12.586,18.947-.086.091-.172.091-.349.091-.343,0-.52-.525-.52-1.392,0-3.825,3.2-14.512,3.463-15.29a7.732,7.732,0,0,0,.7-2.957c0-1.045-2.781-1.478-3.134-2.433a7.307,7.307,0,0,0-5.3,1.918c-2.781,2.6-5.032,11.126-5.027,17.555a13.663,13.663,0,0,0,.611,4.516C158.973,71.891,161.935,74.671,163.933,74.671Z" transform="translate(-112.197 -30.409)"/><path class="a" d="M175.378,43.192c.783-.348,1.827-.782,1.827-2.084a2.423,2.423,0,0,0-1.827-1.912,1.557,1.557,0,0,0-1.478,1.569c0,.348.177.7.177,1.045C174.077,41.719,174.425,43.192,175.378,43.192Z" transform="translate(-108.462 -28.398)"/><path class="a" d="M172.267,42.938a2.236,2.236,0,0,0,.954-1.478c-.171-.611-.7-2.175-1.735-2.175-.086,0-.177.091-.349.091a.443.443,0,0,0-.348-.176c-.52,0-1.131,1.215-1.131,1.826C169.658,42.413,171.222,42.938,172.267,42.938Z" transform="translate(-109.433 -28.397)"/><path class="a" d="M226.219,44.683c.172-.05.351-.06.528-.1-.016-.023-.077-.023-.077-.049C226.594,44.562,226.421,44.616,226.219,44.683Z" transform="translate(-96.49 -27.176)"/><path class="a" d="M219.63,71.983a10.463,10.463,0,0,1,1.735.872c.263.172.525.086,1.131.257-.086-.171-.52-.257-.7-.434a14.016,14.016,0,0,0,3.562.515,3.178,3.178,0,0,0-.954-.257,3.984,3.984,0,0,1-2.867-.778,13.077,13.077,0,0,1,1.65.515h.348c.258,0,.434,0,.52.177.177,0,.086-.177.177-.177.257,0,.782.177,1.04.177.782,0,1.131.52,2,.52a3.328,3.328,0,0,0,1.217-.177c6.6-1.478,10.859-6.872,12.247-8.608.349-.348.172-2.695,1.04-3.215.349,0,.606-1.049.783-1.311.348.091.348-.778.606-1.126-.086,0-.954.872-.954,1.221-.52,0-.611.691-.96.868.177-.177.177-.434.349-.52-.172.086-.349.257-.434.257,0-.52.348-.782.525-1.215.52,0,.777-1.569,1.3-2.175a.316.316,0,0,1,.086.258,4.64,4.64,0,0,1-.783,1.912c.263-.348.869-1.3.869-1.217A3.2,3.2,0,0,1,244.21,56.5c-.177.348-.52.611-.611,1.044,0,.348-.086.52-.086.7,0,.349-.262.52-.348.7a.3.3,0,0,1,.176-.091c0,.091.086.349.172.349.954-1.822,1.736-2,1.736-2.519,0-.7,1.126-1.649,1.473-2.084a3.044,3.044,0,0,1-.348.955l-.52.52a42.9,42.9,0,0,1-3.906,5.913c0-.172-.257-.257-.257-.257-.263.171-.435,1.126-.435,1.649a1.035,1.035,0,0,0,.091.435c2.6-3.22,6.333-8.26,6.333-10.344,0-.263.172-.611.172-.96,0-.257-.086-.085-.086-.52,0,0,0-.262-.086-.262-.525,1.306-.611,1.912-1.217,2.523,0-.262.258-.348.258-.611a12.044,12.044,0,0,1-1.478,1.913c1.564-3.129,1.564-3.387,1.74-3.387,0,.086-.085.434-.085.606a2,2,0,0,0,.52-1.387v-.349a1.653,1.653,0,0,1,.434-.868c-.434-.177-.439-.611-.7-.611-.086,0-.257.086-.515.348l-.7.869c-2,3.043-10.588,15.824-18.758,15.829-3.3,0-5.646-1.731-5.651-5.122a9.072,9.072,0,0,1,.52-2.781,20.069,20.069,0,0,0,3.392.344c8.078,0,9.987-5.742,9.987-8.523,0-2.256-.963-3.038-1.135-3.734-.177-.434-.086-1.736-.611-1.736a.312.312,0,0,0-.257.086c0,.086.085.172.085.258-1.215-.606-1.215-1.559-2.866-1.559-8.518.01-15.724,10.874-15.719,18.257a13.573,13.573,0,0,0,4.7,10.339ZM246.2,52.849c-.177.434-1.3,1.74-1.217,2.089-.348.343-.262.691-.434,1.126,0-.172,0-.258-.091-.258-.171,0-.429.606-.515.692C243.942,54.938,245.422,53.722,246.2,52.849ZM234.991,48.6c-.263-.177-.349-.7-.525-.958v.7c-.258.172-.349-1.3-.349-1.392A3.4,3.4,0,0,1,234.991,48.6Zm-5.213-4.522c.085-.085.171-.085.343-.085a1.14,1.14,0,0,1,.525.085l-1.478.268C229.082,44.174,229.779,44.26,229.779,44.083Zm-1.045.616c0-.086.52-.262.782-.267a.331.331,0,0,1,.263.086.8.8,0,0,0,.434-.086.668.668,0,0,1,.348.086,6,6,0,0,0-1.229.23c.036.055.06.122.184.118h.434c0,.086-.348.262-.52.262s-.348-.081-.61-.081a4.278,4.278,0,0,1-1.479.52,4.363,4.363,0,0,1,1.462-.72,8.3,8.3,0,0,0-2.33,1.069A4.338,4.338,0,0,1,228.734,44.7Zm-2,4.6a6.2,6.2,0,0,1,3.65-1.654,2.724,2.724,0,0,1,.868.085c-.864,3.564-6.772,6.348-8.075,7.307A18.169,18.169,0,0,1,226.735,49.3Z" transform="translate(-99.074 -27.339)"/><path class="a" d="M142.267,110.094c6.772-8.432,16.058-17.56,22.311-24.08-.086,0-.172-.262-.258-.176l-.348.348c-.091,0-.091-.086-.091-.434-.172,0-.172.086-.258.086.086-.086-.176-.172-.262-.172,0-.263-1.564-.52-1.912-.52h-.435a.315.315,0,0,1-.257-.086l-.263.091a.185.185,0,0,0-.171-.177.523.523,0,0,1-.439-.172.652.652,0,0,1-.344.172h-.525c-.257,0-.257.086-.257.086-3.911,0-18.581,16.959-18.581,16.959-.086.086-.177.348-.348.348s-.177-.171-.177-.262c.869-6.6,3.291-17.035,5.284-25.982,0,0-.868,0-.868-.172a9.109,9.109,0,0,1-.439-1.478,3.4,3.4,0,0,1-.872-.262c-.258,0-.258.262-.434.262a3.76,3.76,0,0,1-1.475-.172s-.262-.257-.439-.257c-.434,0-.782.348-1.215.348-.52,0-1.04-.091-1.564-.091a2.721,2.721,0,0,0-1.736.525c-.348.086-.692.52-1.126.525-.086,0-.172.086-.258.086a.88.88,0,0,0-.348-.086c-.348,0-.611.172-.868.172a1.128,1.128,0,0,0-.525-.086c-.52,0-.954.348-1.389.348,0,.086-.176.177-.348.177-2.862,8-6.242,22.94-8.58,35.54-.429,4.349-1.813,11.04-1.808,17.035,0,3.385.439,6.514,1.741,8.77a3.075,3.075,0,0,0,2.17,1.65,9.406,9.406,0,0,0,5.132,1.559,4.291,4.291,0,0,0,1.044-.086c0-.176.171-.262.348-.262a.321.321,0,0,0,.086-.263c0-.086.7.439.954.7,0-.258-.172-.434-.172-.7a1.471,1.471,0,0,1,.167-.434c.177,0,.439.091.444.263,0-.172.868.434,1.217.868,0-.434-.349-.606-.354-1.04.091.257.354.606.525.606a3.272,3.272,0,0,0-.267-.954c.263.257.439.691.7.691.085,0,.52.439.868.606a1.11,1.11,0,0,0-.263-.863c0-.349.086-.439.172-.439.263,0,.616.868.958,1.04a2.081,2.081,0,0,1-.176-.783c.267.263.614.7.786.7a3.914,3.914,0,0,1-.267-.783c.348,0,.614.611.7.611a.635.635,0,0,0,.081-.434c0-.783-.868-1.826-1.04-2.346a35.165,35.165,0,0,1-.872-7.474,59.756,59.756,0,0,1,1.207-10.6l.172-.954c1.483,2.952,7.649,8.422,11.045,9.815a2.717,2.717,0,0,1-.176-.609c.7,1.21,4,2.165,5.213,2.427a16.7,16.7,0,0,1,1.74.343c.954,0,1.822.611,2.695.7.086,0-.091-.086-.091-.262,0-.086.177-.263.611-.263-.086-.086-.086-.343-.086-.343a7.985,7.985,0,0,1,2.084.782,19.7,19.7,0,0,1,2.695.778C155.482,124.6,146.187,120.524,142.267,110.094Z" transform="translate(-120.648 -20.424)"/><path class="a" d="M243.372,111.342c6.333-11.3,12.4-25.3,13.789-39.2,0-.263.085-.434.085-.7,0-2.432-2-4.688-4-4.688a3.06,3.06,0,0,0-1.65.525c-4.258.958-5.56,2.089-8.512,5.309-6.338,6.782-10.144,28.328-10.13,44.057,0,.246.011.494.012.741-4.553,6.273-9.544,11.954-11.129,11.954a.333.333,0,0,1-.262-.085c-.692-.611-.958-3.215-.958-6.434,0-5.036.424-11.379.6-13.463,5.637-10.693,10.5-17.914,12.486-30.685a23.535,23.535,0,0,0,.257-3.3c0-4.779-2-6.948-5.218-6.944-10.773,0-16.84,25.726-17.789,33.723-.272,2.227-.463,4.348-.59,6.395-.7.248-1.479.565-2.443.993-.086,0-.172.086-.258.086a27.384,27.384,0,0,1-5.474,1.917,1,1,0,0,0-.7-.262.488.488,0,0,0-.52.434c0,.091.262.439.348.7,0,.262-.262.434-.262.61v.783a30.348,30.348,0,0,1-5.547,16.6,10.44,10.44,0,0,1-.353-2.776,28.4,28.4,0,0,1,.611-4.869,1.943,1.943,0,0,0,.085-.692c1.556-7.649,5.285-14.431,10.588-16.868.435,0,.783.176,1.3.176a1.649,1.649,0,0,0,.611-.091.752.752,0,0,0,.257-.52c0-1.129-4.082-1.73-4.95-1.73h-.783c-6.426,0-10.945,7.122-13.024,14.111-4.561,5.886-8.894,10.836-9.9,10.836-.086,0-.172-.257-.172-.782,0-2.17.778-8.08.773-12.337a11.877,11.877,0,0,0-.525-4.083c-.786-1.735-3.915-2.513-6.348-2.513a6.059,6.059,0,0,0-2.346.353c-4.163,1.65-7.459,8.17-8.851,10.255.609-2.781,1.821-8.427,2.25-10.86v-.348a2.221,2.221,0,0,0-3.648-1.65c-1.912.7-4.258,0-4.869,2.614-1.212,5.385-2.766,15.29-2.761,20.937.434,1.564,1.655.868,3.476,1.65a3.009,3.009,0,0,0,2,1.045c.958,0,1.827-.788,2.347-2.266,2.952-6.166,5.637-11.909,9.977-16.944.348.086.434.692.434,1.564,0,2.78-1.121,8.512-1.121,12.6,0,4,1.311,6.085,5.656,6.08,3.754,0,8.431-3.92,12.34-8.365,0,.059-.007.127-.007.186,0,3.3.874,8.861,5.132,9.2.344,0,.783.091,1.126.091a4.556,4.556,0,0,0,1.217-.176c5.041-2.438,4.345-3.653,5.471-5.828,1.044-.954,1.821-7.3,1.821-8.775a38.42,38.42,0,0,0-.614-6l.262-.086c.348.086-.086.263.611.263,1.126,0,3.471-.353,3.905-1.049a.812.812,0,0,0,.611-.434c0-.348,1.217-.434,1.736-1.131a2.207,2.207,0,0,0,.445-.086c-.032.956-.1,1.946-.1,2.867,0,7.125,1.14,12.68,3.749,15.113,2.26,2.084,4.43,3.3,6.867,3.3,3.6,0,7.527-2.676,12.436-8.825.541,6.412,2,12.793,5.387,18.279a.709.709,0,0,1,.606-.52c.868,0,1.74.611,2.609.611a11.258,11.258,0,0,1,1.387-.177c.177.086.349.172.349.257a3.848,3.848,0,0,1,1.993-.868c.611,0,.872.868,1.311.868a.376.376,0,0,1,.344-.262c-3.306-5.823-4.1-14.5-4.1-22.062C243.115,116.641,243.2,113.775,243.372,111.342Zm.511-9.475c.515-6.52,5.193-27.633,8.236-29.374,0,6.863-5.546,23.637-8.236,29.808Zm-13.14-29.708a9.625,9.625,0,0,1,.086,1.131c-1.641,10.43-5.026,18.338-9.1,27.466C221.983,94.674,227.358,77.376,230.743,72.158ZM218.7,118.567a5.823,5.823,0,0,1-.086-1.306,3.137,3.137,0,0,1,.176.872A3.682,3.682,0,0,1,218.7,118.567Zm-.172-2.866.167-.525a1.615,1.615,0,0,0,.095.434Zm.258-2.347.085-1.131c.086,0,.086.086.086.258A1.936,1.936,0,0,1,218.783,113.355Zm.52.692c0,.958-.081,2-.081,3.043l-.177-.954A19.687,19.687,0,0,1,219.3,114.046Zm.09,4.955v.954c0-.171-.262-.434-.262-.7C219.131,119.173,219.308,119.087,219.393,119Zm-.085,1.389c.171,1.306.262,2.957.353,4.607a11.354,11.354,0,0,1-.353-3.3Zm.353,5.127a6.072,6.072,0,0,1,.171,2,3.218,3.218,0,0,1-.262-1.3C219.57,125.95,219.661,125.692,219.661,125.516Zm.252-7.474c0,.091-.171.348-.171.439v3.038a21.052,21.052,0,0,0,.09,2.433v.262a44.588,44.588,0,0,1-.353-5.646c0-.525.086-.959.086-1.306a2.955,2.955,0,0,1,.091-.606c0-1.3.343-3.911.343-4.082a4.236,4.236,0,0,1,.086,1.124c0,1.307-.172,3.22-.257,3.911v.262l.262-.434C220.089,117.609,219.913,117.871,219.913,118.043Zm18.872,19.106a4.23,4.23,0,0,0-.349-1.307.169.169,0,0,1-.171.177l.606,2c0,.086-.435-.7-.692-1.044-.091,0-.177-.348-.177-.262a.949.949,0,0,0-.348-.783c-.52-.777-.7-1.9-1.221-2.862-.434-.171-.52-.6-.6-1.04,0-.09.257.172.434.172-.263,0-.616-5.127-.963-5.127a.743.743,0,0,0-.172.525c0,.778.7,2.256.7,3.124,0,.177-.783-.692-.783-1.04a4.909,4.909,0,0,0,.086-.611c0-.52-.091-1.65-.439-1.736a.919.919,0,0,1-.086-.348.185.185,0,0,1,.172-.172.327.327,0,0,0,.086-.262,3.5,3.5,0,0,0-.172-.611.868.868,0,0,0,.086-.257c0-1.07-.421-2.324-.537-3.443.086-.112.173-.23.26-.345,0,.055.012.084.014.14v.434c.177-.349.263-.434.258-.611l-.023-.295c.08-.106.156-.205.237-.313l.048.347c0,.262-.081.7-.343.782a16.193,16.193,0,0,1,.348,2v.783c0,.525.086.434.086,1.129v.7c.086-.262.172-.262.262-.262,0-.692,0-1.217-.176-3.734l0-2.032c.128-.173.247-.319.375-.5,0,.114-.027.243-.027.355.01,8.341,1.312,11.384,1.837,12.682,0,.091.257.525.257.611.1.782,1.221,2,1.311,2.518C238.961,136.885,238.961,136.972,238.785,137.148Z" transform="translate(-113.141 -22.092)"/><path class="a" d="M242.578,97.733c.177-.054.362-.063.544-.1-.016-.023-.08-.026-.08-.052C242.964,97.6,242.784,97.661,242.578,97.733Z" transform="translate(-92.747 -15.039)"/><path class="a" d="M264.051,104.765c-.523,1.307-.609,1.913-1.215,2.523,0-.262.257-.348.257-.61a12.2,12.2,0,0,1-1.473,1.912c1.559-3.129,1.559-3.387,1.736-3.387,0,.086-.086.435-.086.606a2,2,0,0,0,.52-1.387v-.348a1.652,1.652,0,0,1,.434-.869c-.434-.176-.434-.611-.7-.611-.086,0-.258.086-.52.349l-.7.868c-2,3.043-10.588,15.82-18.757,15.829-3.3,0-5.648-1.735-5.651-5.122a9.028,9.028,0,0,1,.52-2.78,20.19,20.19,0,0,0,3.39.343c8.08,0,9.987-5.747,9.987-8.527,0-2.256-.963-3.034-1.135-3.729-.176-.435-.086-1.736-.61-1.736a.316.316,0,0,0-.258.086c0,.086.086.171.086.262-1.217-.611-1.217-1.564-2.867-1.564-8.517.01-15.724,10.874-15.714,18.262a13.552,13.552,0,0,0,4.7,10.334v-.439a10.616,10.616,0,0,1,1.736.872c.262.172.525.086,1.131.253-.086-.172-.52-.253-.7-.429a14.336,14.336,0,0,0,3.562.52,3.051,3.051,0,0,0-.954-.263,4.012,4.012,0,0,1-2.867-.777,11.976,11.976,0,0,1,1.65.515h.349c.257,0,.434,0,.52.176.176,0,.085-.176.176-.176.258,0,.783.176,1.04.176.783,0,1.131.52,2,.52a3.44,3.44,0,0,0,1.217-.171c6.6-1.483,10.859-6.878,12.248-8.614.348-.348.171-2.694,1.04-3.218.348,0,.606-1.045.782-1.307.349.091.349-.782.606-1.126-.086,0-.954.869-.954,1.217-.52,0-.611.692-.959.872.176-.176.176-.434.348-.525-.172.091-.348.263-.434.263,0-.52.348-.783.525-1.221.52,0,.777-1.564,1.3-2.17a.316.316,0,0,1,.086.258,4.655,4.655,0,0,1-.782,1.912c.262-.348.868-1.3.868-1.215a3.181,3.181,0,0,1,1.044-1.822c-.177.344-.52.606-.611,1.04,0,.348-.086.52-.086.7,0,.348-.262.52-.348.7a.3.3,0,0,1,.177-.09c0,.09.086.348.171.348.955-1.822,1.736-2,1.736-2.518,0-.7,1.126-1.65,1.473-2.084a3.107,3.107,0,0,1-.343.954l-.52.52a43.081,43.081,0,0,1-3.911,5.909c0-.172-.257-.258-.257-.258-.263.177-.434,1.131-.434,1.655a1.043,1.043,0,0,0,.09.434c2.6-3.22,6.338-8.26,6.333-10.344,0-.262.172-.611.172-.958,0-.258-.086-.086-.086-.52C264.137,105.028,264.137,104.765,264.051,104.765Zm-12.69-3.114c-.263-.177-.348-.7-.525-.958v.7c-.258.171-.348-1.3-.348-1.393A3.423,3.423,0,0,1,251.36,101.651Zm-5.213-4.521c.086-.086.172-.086.343-.086a1.123,1.123,0,0,1,.525.086l-1.478.262C245.451,97.216,246.148,97.306,246.148,97.13Zm-1.044.611c0-.086.52-.263.782-.263a.331.331,0,0,1,.263.086.794.794,0,0,0,.434-.086.668.668,0,0,1,.348.086,5.889,5.889,0,0,0-1.226.229c.037.054.06.119.182.119h.435c0,.086-.349.263-.52.263s-.349-.086-.611-.086a4.221,4.221,0,0,1-1.478.525,4.3,4.3,0,0,1,1.448-.719,8.31,8.31,0,0,0-2.316,1.067A4.4,4.4,0,0,1,245.1,97.741Zm-1.993,4.607a6.134,6.134,0,0,1,3.643-1.655,2.684,2.684,0,0,1,.868.086c-.863,3.562-6.772,6.348-8.073,7.307A18.1,18.1,0,0,1,243.11,102.348Zm18.247,5.637c-.349.344-.258.692-.43,1.126,0-.172,0-.258-.09-.258-.172,0-.435.606-.52.7,0-1.564,1.473-2.785,2.255-3.653C262.4,106.329,261.271,107.637,261.357,107.984Z" transform="translate(-95.327 -15.2)"/></g><path class="a" d="M281.82,138.283c-16.267,0-32.811-.482-48.812-.949-18.109-.53-36.861-1.054-55.294-.925-11.619.095-23.46.586-34.916,1.058-7.373.306-14.736.611-22.076.816a1.833,1.833,0,0,0-1.779,1.884,1.7,1.7,0,0,0,1.884,1.779c7.355-.205,14.737-.511,22.125-.821,10.812-.447,21.967-.884,32.93-1.013h7.228c16.652-.015,33.468.41,49.788.883,16.029.468,32.6.95,48.921.95a1.956,1.956,0,0,0,1.946-1.832A1.934,1.934,0,0,0,281.82,138.283Z" transform="translate(-10.631 1.678)"/><g transform="translate(104.851 154.387)"><path class="a" d="M130.4,161.46c1.2,0,1.846-.6,1.846-1.488,0-1.091-1-1.55-2.223-2.079-1.392-.611-2.832-1.235-2.832-3.018,0-1.675,1.268-2.834,3.319-2.834a5.6,5.6,0,0,1,2,.372,1.262,1.262,0,0,1,.92,1.131l.081.734c.063.625-.3.879-.691.879a.749.749,0,0,1-.75-.707l-.095-.735a3.882,3.882,0,0,0-1.488-.3c-1.064,0-1.7.458-1.7,1.331,0,.958.763,1.3,2.046,1.851,1.44.609,3,1.359,3,3.266,0,1.8-1.407,2.976-3.424,2.976a7.6,7.6,0,0,1-2.3-.377,1.237,1.237,0,0,1-.935-1.172l-.066-.8c-.043-.657.315-.877.677-.877a.741.741,0,0,1,.75.72l.095.8A5.178,5.178,0,0,0,130.4,161.46Z" transform="translate(-113.614 -149.127)"/><path class="a" d="M135.5,153.428a.782.782,0,0,1,.782-.782.792.792,0,0,1,.783.782v6.214c0,1.346.672,2.327,2.036,2.327,1.346,0,2.032-.982,2.032-2.327v-6.214a.8.8,0,0,1,.786-.782.785.785,0,0,1,.782.782v6.181a3.6,3.6,0,1,1-7.2,0Zm1.192-2.785a.958.958,0,0,1,.935-.973.977.977,0,0,1,.973.973.936.936,0,0,1-.94.954A.948.948,0,0,1,136.693,150.643Zm2.923,0a.95.95,0,0,1,.925-.973.976.976,0,0,1,.983.973.954.954,0,0,1-1.908,0Z" transform="translate(-111.694 -149.67)"/><path class="a" d="M147.641,161.46c1.2,0,1.846-.6,1.846-1.488,0-1.091-1-1.55-2.223-2.079-1.392-.611-2.832-1.235-2.832-3.018,0-1.675,1.268-2.834,3.319-2.834a5.6,5.6,0,0,1,2,.372,1.262,1.262,0,0,1,.92,1.131l.081.734c.063.625-.3.879-.692.879a.748.748,0,0,1-.748-.707l-.1-.735a3.873,3.873,0,0,0-1.488-.3c-1.063,0-1.7.458-1.7,1.331,0,.958.763,1.3,2.046,1.851,1.44.609,3,1.359,3,3.266,0,1.8-1.407,2.976-3.425,2.976a7.6,7.6,0,0,1-2.3-.377,1.237,1.237,0,0,1-.935-1.172l-.066-.8c-.043-.657.315-.877.677-.877a.74.74,0,0,1,.748.72l.1.8A5.178,5.178,0,0,0,147.641,161.46Z" transform="translate(-109.669 -149.127)"/><path class="a" d="M155.725,161.46c1.2,0,1.846-.6,1.846-1.488,0-1.091-1-1.55-2.223-2.079-1.392-.611-2.832-1.235-2.832-3.018,0-1.675,1.268-2.834,3.314-2.834a5.563,5.563,0,0,1,2,.372,1.261,1.261,0,0,1,.925,1.131l.076.734c.068.625-.295.879-.686.879a.749.749,0,0,1-.75-.707l-.095-.735a3.882,3.882,0,0,0-1.488-.3c-1.064,0-1.7.458-1.7,1.331,0,.958.763,1.3,2.046,1.851,1.44.609,3,1.359,3,3.266,0,1.8-1.407,2.976-3.424,2.976a7.6,7.6,0,0,1-2.3-.377,1.231,1.231,0,0,1-.935-1.172l-.066-.8c-.043-.657.315-.877.677-.877a.739.739,0,0,1,.748.72l.1.8A5.178,5.178,0,0,0,155.725,161.46Z" transform="translate(-107.82 -149.127)"/><path class="a" d="M160.864,152.874a.789.789,0,0,1,1.578,0v3.863h1.331l2.318-4.239a.841.841,0,0,1,.673-.406.738.738,0,0,1,.767.767,1.211,1.211,0,0,1-.157.516l-2.236,3.958,2.442,4.163a1.165,1.165,0,0,1,.187.5.765.765,0,0,1-.8.767.823.823,0,0,1-.672-.409l-2.455-4.269h-1.4v3.9a.789.789,0,0,1-1.578,0Z" transform="translate(-105.89 -149.116)"/><path class="a" d="M171.169,153.327c.267-.892.686-1.235,1.487-1.235.859,0,1.236.343,1.5,1.235l2.5,8.341a.986.986,0,0,1,.061.315.794.794,0,0,1-.782.782.783.783,0,0,1-.754-.562l-.576-2.023h-3.9l-.578,2.023a.783.783,0,0,1-1.535-.22.953.953,0,0,1,.061-.315Zm-.1,5.556h3.181l-1.536-5.383h-.109Z" transform="translate(-104.119 -149.116)"/><path class="a" d="M179.515,161.965a.8.8,0,0,1-.8.782.784.784,0,0,1-.782-.782v-9.013a.782.782,0,0,1,.782-.783h2.518a3.279,3.279,0,0,1,3.43,3.286,2.944,2.944,0,0,1-1.756,2.738l1.851,3.286a1.158,1.158,0,0,1,.187.515.749.749,0,0,1-.783.753.821.821,0,0,1-.687-.424l-2.021-3.739c-.233.015-.453.029-.7.029h-1.24Zm0-4.588h1.631a1.908,1.908,0,1,0,0-3.814h-1.631Z" transform="translate(-101.983 -149.098)"/><path class="a" d="M188.239,153.562h-2.1a.7.7,0,1,1,0-1.393H191.9a.7.7,0,1,1,0,1.393H189.8v8.4a.782.782,0,0,1-1.564,0Z" transform="translate(-100.267 -149.098)"/><path class="a" d="M193.162,157.454c0-2.928,1.14-5.413,4.1-5.413s4.087,2.485,4.087,5.413c0,2.991-1.174,5.385-4.087,5.385S193.162,160.445,193.162,157.454Zm6.62,0c0-1.988-.563-3.991-2.523-3.991s-2.533,2-2.533,3.991c0,2.19.672,3.973,2.533,3.973S199.782,159.644,199.782,157.454Z" transform="translate(-98.499 -149.127)"/><path class="a" d="M202.876,152.952a.775.775,0,0,1,.783-.783h4.65a.7.7,0,1,1,0,1.393h-3.854v3.19h2.99a.7.7,0,0,1,.692.687.711.711,0,0,1-.692.705h-2.99v3.82a.79.79,0,0,1-1.579,0Z" transform="translate(-96.276 -149.098)"/><path class="a" d="M210.437,152.952a.774.774,0,0,1,.782-.783h4.65a.7.7,0,1,1,0,1.393h-3.854v3.19h2.991a.7.7,0,0,1,.691.687.711.711,0,0,1-.691.705h-2.991v3.82a.789.789,0,0,1-1.578,0Z" transform="translate(-94.546 -149.098)"/><path class="a" d="M218,152.952a.774.774,0,0,1,.782-.783h4.727a.7.7,0,1,1,0,1.393h-3.93v2.97h3.147a.7.7,0,0,1,.705.687.714.714,0,0,1-.705.707h-3.147v3.334h3.963a.7.7,0,0,1,0,1.392h-4.76a.774.774,0,0,1-.782-.783Z" transform="translate(-92.816 -149.098)"/><path class="a" d="M225.969,152.874a.789.789,0,0,1,1.578,0v8.4h3.682a.7.7,0,0,1,0,1.392h-4.478a.774.774,0,0,1-.782-.783Z" transform="translate(-90.992 -149.116)"/><path class="a" d="M233.378,152.874a.8.8,0,0,1,.863-.782.9.9,0,0,1,.811.467l3.978,6.982h.061v-6.668a.783.783,0,0,1,.783-.782.8.8,0,0,1,.782.782v9.109a.806.806,0,0,1-.863.782.933.933,0,0,1-.831-.472l-3.973-6.853h-.033v6.544a.8.8,0,0,1-.8.782.784.784,0,0,1-.782-.782Z" transform="translate(-89.297 -149.116)"/><path class="a" d="M118.693,168.63c.267-.892.691-1.235,1.488-1.235.858,0,1.235.343,1.5,1.235l2.5,8.341a.986.986,0,0,1,.061.315.8.8,0,0,1-.782.783.784.784,0,0,1-.754-.563l-.576-2.023h-3.9l-.578,2.023a.783.783,0,0,1-1.535-.22.953.953,0,0,1,.061-.315Zm-.1,5.556h3.181l-1.536-5.384h-.109Z" transform="translate(-116.127 -145.614)"/><path class="a" d="M125.305,168.177a.783.783,0,0,1,.783-.782.792.792,0,0,1,.782.782v6.214c0,1.346.673,2.332,2.037,2.332,1.344,0,2.031-.987,2.031-2.332v-6.214a.8.8,0,0,1,.786-.782.786.786,0,0,1,.783.782v6.181a3.6,3.6,0,1,1-7.2,0Z" transform="translate(-114.027 -145.614)"/><path class="a" d="M137.445,176.763c1.2,0,1.846-.6,1.846-1.488,0-1.091-1-1.545-2.222-2.079-1.393-.61-2.834-1.235-2.834-3.018,0-1.675,1.269-2.834,3.315-2.834a5.471,5.471,0,0,1,2,.377,1.253,1.253,0,0,1,.925,1.126l.076.734c.066.625-.3.879-.687.879a.749.749,0,0,1-.75-.707l-.095-.735a3.87,3.87,0,0,0-1.488-.295c-1.064,0-1.7.453-1.7,1.326,0,.958.763,1.3,2.046,1.851,1.44.609,3,1.359,3,3.266,0,1.8-1.406,2.976-3.424,2.976a7.568,7.568,0,0,1-2.3-.377,1.229,1.229,0,0,1-.934-1.172l-.068-.8c-.043-.657.315-.877.677-.877a.741.741,0,0,1,.75.72l.095.8A5.179,5.179,0,0,0,137.445,176.763Z" transform="translate(-112.003 -145.626)"/><path class="a" d="M146.853,168.255a.783.783,0,0,1,.783-.783h1.94c2.9,0,4.6,1.612,4.6,5.256s-1.849,5.227-4.615,5.227h-1.927a.775.775,0,0,1-.783-.783Zm2.675,8.308c2.114,0,3.086-1.145,3.086-3.835,0-2.723-.958-3.862-3.071-3.862h-1.111v7.7Z" transform="translate(-109.096 -145.596)"/><path class="a" d="M155.869,168.255a.774.774,0,0,1,.782-.783h4.726a.7.7,0,1,1,0,1.393h-3.93v2.97H160.6a.7.7,0,0,1,.705.687.714.714,0,0,1-.705.707h-3.148v3.334h3.964a.7.7,0,0,1,0,1.392h-4.76a.774.774,0,0,1-.782-.783Z" transform="translate(-107.033 -145.596)"/><path class="a" d="M163.841,168.2a.815.815,0,0,1,.8-.81.9.9,0,0,1,.877.528l2.566,5.055h.033l2.581-5.055a.891.891,0,0,1,.863-.528.8.8,0,0,1,.8.81v9.081a.782.782,0,1,1-1.564,0v-6.51h-.076l-1.707,3.377a.976.976,0,0,1-.907.6.993.993,0,0,1-.911-.6l-1.7-3.377h-.066v6.51a.8.8,0,0,1-.8.783.785.785,0,0,1-.782-.783Z" transform="translate(-105.209 -145.614)"/><path class="a" d="M178.523,176.563h1.2v-7.7h-1.2a.7.7,0,1,1,0-1.393h3.986a.7.7,0,1,1,0,1.393h-1.22v7.7h1.22a.7.7,0,1,1,0,1.392h-3.986a.7.7,0,1,1,0-1.392Z" transform="translate(-102.011 -145.596)"/><path class="a" d="M184.981,168.177a.8.8,0,0,1,.863-.782.9.9,0,0,1,.811.467l3.978,6.982h.061v-6.668a.783.783,0,0,1,.783-.782.8.8,0,0,1,.782.782v9.109a.807.807,0,0,1-.863.783.934.934,0,0,1-.831-.473l-3.973-6.853h-.033v6.544a.8.8,0,0,1-.8.783.785.785,0,0,1-.782-.783Z" transform="translate(-100.371 -145.614)"/><path class="a" d="M194.276,168.177a.8.8,0,0,1,.863-.782.9.9,0,0,1,.811.467l3.978,6.982h.061v-6.668a.783.783,0,0,1,.783-.782.8.8,0,0,1,.782.782v9.109a.806.806,0,0,1-.863.783.93.93,0,0,1-.829-.473l-3.973-6.853h-.034v6.544a.8.8,0,0,1-.8.783.785.785,0,0,1-.782-.783Z" transform="translate(-98.244 -145.614)"/><path class="a" d="M208.352,176.827c-.238.879-.692,1.241-1.46,1.241a1.43,1.43,0,0,1-1.468-1.241l-2.361-8.322a1.173,1.173,0,0,1-.066-.329.785.785,0,0,1,.782-.782.776.776,0,0,1,.768.563l2.332,8.717h.061l2.332-8.717a.728.728,0,0,1,.72-.563.783.783,0,0,1,.783.782,1.133,1.133,0,0,1-.063.329Z" transform="translate(-96.249 -145.614)"/><path class="a" d="M212.234,176.563h1.2v-7.7h-1.2a.7.7,0,1,1,0-1.393h3.986a.7.7,0,1,1,0,1.393H215v7.7h1.22a.7.7,0,1,1,0,1.392h-3.986a.7.7,0,1,1,0-1.392Z" transform="translate(-94.297 -145.596)"/><path class="a" d="M218.692,168.255a.774.774,0,0,1,.782-.783H224.2a.7.7,0,1,1,0,1.393h-3.93v2.97h3.148a.7.7,0,0,1,.705.687.714.714,0,0,1-.705.707H220.27v3.334h3.963a.7.7,0,0,1,0,1.392h-4.759a.774.774,0,0,1-.782-.783Z" transform="translate(-92.657 -145.596)"/><path class="a" d="M228.242,177.268a.8.8,0,0,1-.8.783.786.786,0,0,1-.783-.783v-9.013a.783.783,0,0,1,.783-.783h2.518a3.278,3.278,0,0,1,3.428,3.286,2.946,2.946,0,0,1-1.75,2.738l1.846,3.286a1.156,1.156,0,0,1,.186.515.75.75,0,0,1-.782.755.821.821,0,0,1-.687-.425l-2.021-3.739c-.235.015-.453.029-.7.029h-1.24Zm0-4.588h1.631a1.908,1.908,0,1,0,0-3.814h-1.631Z" transform="translate(-90.833 -145.596)"/><path class="a" d="M236.962,168.866h-2.1a.7.7,0,1,1,0-1.393h5.756a.7.7,0,1,1,0,1.393h-2.093v8.4a.782.782,0,1,1-1.564,0Z" transform="translate(-89.118 -145.596)"/><path class="a" d="M242.564,168.255a.774.774,0,0,1,.783-.783h4.726a.7.7,0,1,1,0,1.393h-3.93v2.97h3.147a.7.7,0,0,1,.707.687.715.715,0,0,1-.707.707h-3.147v3.334h3.963a.7.7,0,0,1,0,1.392h-4.759a.774.774,0,0,1-.783-.783Z" transform="translate(-87.195 -145.596)"/><path class="a" d="M250.532,168.177a.79.79,0,0,1,1.579,0v8.4h3.682a.7.7,0,0,1,0,1.392h-4.479a.774.774,0,0,1-.782-.783Z" transform="translate(-85.371 -145.614)"/></g></g><rect class="b" width="361.675" height="251.383" transform="translate(0 0)"/><rect class="b" width="361.675" height="251.383" transform="translate(0 0)"/></g><g transform="translate(354.125 2359.694)"><g transform="translate(0.979 -264.944)"><g transform="translate(2.516 0)"><path class="c" d="M0,3.22C51.219,1.09,102.867-3.72,154.123-4.336c94.141-1.132,188.017,7.582,282,7.556" transform="translate(0 4.438)"/></g><g transform="translate(0 450.562)"><path class="c" d="M0,2.414c51.217-1.6,102.866-5.2,154.123-5.665,94.141-.851,188.017,5.684,282,5.665" transform="translate(0 3.327)"/></g><g transform="translate(434.94 5.123)"><path class="c" d="M0,0C1.812,52.848,5.914,106.139,6.439,159.03,7.406,256.168-.02,353.032,0,450" transform="translate(0)"/></g><g transform="translate(0.771 6.516)"><path class="c" d="M0,0C1.562,52.662,5.1,105.766,5.553,158.469,6.385,255.265-.02,351.787,0,448.418" transform="translate(0)"/></g></g></g></g></svg>