<svg xmlns="http://www.w3.org/2000/svg" xmlns:xlink="http://www.w3.org/1999/xlink" width="345.318" height="356.913" viewBox="0 0 345.318 356.913"><defs><style>.a,.d{fill:none;}.b{fill:#F4F4F4;}.c{clip-path:url(#a);}.d{stroke:#262626;stroke-linecap:round;stroke-width:3px;}</style><clipPath id="a"><path class="a" d="M0,90.962H345.318V-265.951H0Z" transform="translate(0 265.951)"/></clipPath></defs><g transform="translate(-1103.341 -291.533)"><path class="b" d="M1225.175,549.1c-1.244,34.662-2.528,70.5-2.535,105.78-33.553-.045-67.616-1.148-100.582-2.222-38.107-1.242-77.512-2.529-116.345-2.175-24.354.22-49.2,1.369-73.228,2.481-14.616.677-29.7,1.369-44.531,1.851,0-35.148,1.111-70.869,2.185-105.421,1.217-39.171,2.476-79.676,2.133-119.6-.216-25.058-1.344-50.623-2.435-75.346-.659-14.939-1.334-30.354-1.8-45.516,15.462-.644,31.228-1.617,46.477-2.558,24.027-1.483,48.872-3.018,73.192-3.31,38.751-.467,78.1,1.245,116.158,2.9,32.412,1.409,65.878,2.849,98.91,2.957.546,14.914,1.308,30.047,2.056,44.723,1.265,24.793,2.572,50.43,2.821,75.53C1228.044,469.182,1226.585,509.808,1225.175,549.1Z" transform="translate(218.167 -8.943)"/><g transform="translate(1141.23 340.765)"><path d="M220.343,143.351h-.149c-17.766,0-35.861-.583-53.284-1.136-19.8-.628-40.269-1.285-60.456-1.106-12.686.1-25.611.7-38.1,1.27-7.949.359-16.152.732-24.191.971a2.137,2.137,0,0,0,.134,4.259c8.069-.254,16.287-.628,24.251-.986,10.355-.463,20.994-.926,31.528-1.151h28.136c12.955.209,25.895.6,38.566,1,17.5.553,35.592,1.136,53.418,1.136a2.2,2.2,0,0,0,2.286-2.137,2.137,2.137,0,0,0-2.137-2.122Z" transform="translate(2.667 59.014)"/><path d="M55.446,158.182a1.091,1.091,0,1,0,0-2.182h-6.38a1.225,1.225,0,0,0-1.225,1.225v11.73a1.225,1.225,0,0,0,1.225,1.225H55.55a1.091,1.091,0,0,0,1.076-1.106,1.076,1.076,0,0,0-1.076-1.121H50.305V163.89h4a1.106,1.106,0,0,0,1.106-1.091,1.091,1.091,0,0,0-1.106-1.076h-4v-3.6Z" transform="translate(5.426 66.388)"/><path d="M65.129,167.425a3.228,3.228,0,0,0-1.151.359,4.946,4.946,0,0,1-2.062.463c-2.66,0-3.556-2.107-3.556-4.991s.867-5.17,3.362-5.17a4.483,4.483,0,0,1,2.062.508l.134.986a1.166,1.166,0,0,0,1.165,1.121c.613,0,1.136-.4,1.061-1.375v-.777a2.271,2.271,0,0,0-1.494-2.077,7.918,7.918,0,0,0-2.988-.613c-4.079,0-5.723,3.407-5.723,7.337s1.763,7.262,5.8,7.262a8.07,8.07,0,0,0,3.81-.912,1.225,1.225,0,0,0,.628-1.046,1.016,1.016,0,0,0-1.046-1.076Z" transform="translate(9.43 66.319)"/><path d="M73.9,155.92a1.18,1.18,0,0,0-1.21,1.21v4.737H67.955v-4.737a1.2,1.2,0,0,0-1.24-1.21,1.21,1.21,0,0,0-1.225,1.21v11.954a1.21,1.21,0,0,0,1.225,1.225,1.2,1.2,0,0,0,1.24-1.225V164h4.737v5.08a1.2,1.2,0,0,0,1.21,1.225,1.21,1.21,0,0,0,1.24-1.225V157.131a1.21,1.21,0,0,0-1.24-1.21Z" transform="translate(14.149 66.348)"/><path d="M83.246,156H75.491a1.091,1.091,0,1,0,0,2.182h2.645v10.893a1.24,1.24,0,0,0,2.465,0V158.182h2.645a1.091,1.091,0,0,0,0-2.182Z" transform="translate(18.553 66.388)"/><path d="M92.386,161.9c-1.748-.717-2.675-1.136-2.675-2.271s.732-1.6,2.137-1.6a5.811,5.811,0,0,1,1.853.314l.1.882a1.18,1.18,0,0,0,1.18,1.091c.613,0,1.165-.374,1.076-1.345l-.1-.941a1.883,1.883,0,0,0-1.375-1.689,7.667,7.667,0,0,0-2.69-.478c-2.988,0-4.662,1.659-4.662,3.96s1.957,3.3,3.885,4.109c1.644.7,2.9,1.255,2.9,2.57s-.792,1.808-2.3,1.808a7.186,7.186,0,0,1-2.241-.374l-.1-.971a1.151,1.151,0,0,0-1.165-1.121c-.553,0-1.121.329-1.061,1.36l.09,1.031a1.808,1.808,0,0,0,1.4,1.733,10.612,10.612,0,0,0,3.093.493c2.824,0,4.767-1.674,4.767-4.154S94.4,162.733,92.386,161.9Z" transform="translate(24.848 66.319)"/><path d="M103.414,157.848c-.4-1.4-.986-1.928-2.331-1.928s-1.913.523-2.331,1.928L95.57,168.7a1.494,1.494,0,0,0-.09.418,1.225,1.225,0,0,0,2.406.359l.717-2.6h4.961l.717,2.6a1.2,1.2,0,0,0,1.166.867,1.21,1.21,0,0,0,1.225-1.225,1.361,1.361,0,0,0,0-.418Zm-4.273,7.023,1.853-6.769h.164l1.853,6.769Z" transform="translate(28.971 66.348)"/><path d="M111.46,158.182a1.091,1.091,0,1,0,0-2.182h-5.394a1.091,1.091,0,0,0,0,2.182h1.494v9.772h-1.494a1.091,1.091,0,0,0-1.106,1.061,1.106,1.106,0,0,0,1.106,1.106h5.394a1.106,1.106,0,0,0,1.106-1.106,1.091,1.091,0,0,0-1.106-1.061h-1.494v-9.832Z" transform="translate(33.656 66.388)"/><path d="M117.577,161.9c-1.748-.717-2.675-1.136-2.675-2.271s.732-1.6,2.152-1.6a5.887,5.887,0,0,1,1.853.314l.1.882a1.165,1.165,0,0,0,1.165,1.091c.613,0,1.165-.374,1.076-1.345l-.1-.941a1.883,1.883,0,0,0-1.36-1.689,7.668,7.668,0,0,0-2.69-.478c-2.988,0-4.677,1.659-4.677,3.96s1.957,3.3,3.885,4.109c1.644.7,2.988,1.255,2.988,2.57s-.807,1.808-2.316,1.808a7.021,7.021,0,0,1-2.226-.374l-.1-.971a1.18,1.18,0,0,0-1.18-1.121c-.553,0-1.121.329-1.046,1.36v1.031a1.808,1.808,0,0,0,1.4,1.733,10.686,10.686,0,0,0,3.093.493c2.824,0,4.781-1.674,4.781-4.154S119.594,162.733,117.577,161.9Z" transform="translate(37.341 66.319)"/><path d="M126.808,155.86c-4.109,0-5.678,3.407-5.678,7.322s1.614,7.277,5.678,7.277,5.678-3.332,5.678-7.277S130.9,155.86,126.808,155.86Zm0,12.387c-2.376,0-3.242-2.331-3.242-5.065,0-2.436.732-5.1,3.242-5.1s3.242,2.66,3.242,5.1C130.05,165.916,129.184,168.247,126.808,168.247Z" transform="translate(41.647 66.319)"/><path d="M140.625,155.921a1.24,1.24,0,0,0-1.225,1.21v8.248h-.075l-5.035-8.726a1.494,1.494,0,0,0-1.27-.732,1.27,1.27,0,0,0-1.36,1.21v11.954a1.24,1.24,0,0,0,2.465,0v-8.054h0l5.006,8.547a1.494,1.494,0,0,0,1.315.732,1.255,1.255,0,0,0,1.345-1.225V157.131A1.225,1.225,0,0,0,140.625,155.921Z" transform="translate(46.851 66.347)"/><path d="M149.009,157.848c-.389-1.4-.986-1.928-2.331-1.928s-1.913.523-2.331,1.928L141.18,168.7a1.1,1.1,0,0,0-.09.418,1.21,1.21,0,0,0,1.225,1.225,1.18,1.18,0,0,0,1.165-.867l.717-2.6h4.961l.762,2.615a1.225,1.225,0,0,0,2.406-.359,1.5,1.5,0,0,0-.09-.418Zm-4.259,7.023L146.6,158.1h.164l1.853,6.769Z" transform="translate(51.512 66.348)"/><path d="M158.4,167.978h-4.782V157.055a1.24,1.24,0,0,0-2.465,0v11.864a1.225,1.225,0,0,0,1.225,1.225h5.977a1.091,1.091,0,0,0,1.076-1.106,1.061,1.061,0,0,0-1.031-1.061Z" transform="translate(56.484 66.364)"/><path d="M40.954,104c0-.314-.314-.523-.418-.628.314.209.418.418.628.418s.628,0,.523-.1a7.882,7.882,0,0,1-1.494-1.659c.732,0,1.494,1.763,2.286,1.972a2.6,2.6,0,0,0-.508-1.046,2.585,2.585,0,0,1,1.136.418c-.209-.418-.628-.628-.628-1.031a1.225,1.225,0,0,1,1.046-.418c.732.717,1.151,1.031,1.345,1.031s.418-.418.418-.628c.628.1,2.2.732,2.5.732,0,0-.822-.628-.822-.837a4.786,4.786,0,0,0,.613.209,1.826,1.826,0,0,1-.1-.314c.1,0,.209.209.523.209a13.684,13.684,0,0,0,2.182.418.239.239,0,0,1,.209-.209c.837,0,1.494,0,1.494-.732a5.618,5.618,0,0,0,1.868.732,8.353,8.353,0,0,1-1.733-4.677,4.6,4.6,0,0,1,.209-1.151c0,.837.314,3.541,1.031,4.169,0-.1.837,1.136,1.151,1.24-1.151-1.494-1.255-3.945-1.255-6.35V94a5.1,5.1,0,0,1,.209-1.763c.1.209,1.24.209,1.494.418s-.717.1-.717.4a3.2,3.2,0,0,1,1.494-.209c0,.209-.314.314-.523.418a.329.329,0,0,0-.314.314l.941-.418c.314,0,.314.523.523.523A1.688,1.688,0,0,1,57.286,94a.971.971,0,0,0-.4.209,1.151,1.151,0,0,0,.926.523,1.136,1.136,0,0,0,.523-.1c.209-.1.418-.314.523-.314s0,.314.418.418a.4.4,0,0,0,.1.3c-.314,0-.314.1-.314.209s.523-.209.837-.209a.269.269,0,0,1,.3.314,4.6,4.6,0,0,1,1.046-.209,4.482,4.482,0,0,1-1.763.837H60.2a1.121,1.121,0,0,1,.628.209,6.411,6.411,0,0,1,1.674-.314,5.512,5.512,0,0,0,1.24.1c3.75,0,14.778-1.36,17.931-15.51v-.314c-.1,0-.837,2.809-1.494,2.988a17.93,17.93,0,0,0,1.151-5.2,15.9,15.9,0,0,0-2.988-8.741,15.7,15.7,0,0,1,3.347,9.877c0-.418.194-.926.194-1.345,0-8.637-6.56-14.449-14.778-16.735,5.723-3.332,10.086-10.1,10.191-15.824v-.418c0-5.409-4.393-13.717-14.942-13.717,0-2.077-2.182-3.213-6.126-3.213-8.846,0-9.055,2.914-9.055,2.6-.941.418-1.345,2.092-1.345,2.988-3.84,20.5-8.965,41.509-8.965,59.918v.837c0,4.677.12,10.191,3.332,10.191-.523-.628-.613-.941-.613-1.151A4.005,4.005,0,0,1,40.954,104ZM61.6,37.308a6.439,6.439,0,0,1,1.36-.1,7.337,7.337,0,0,1,7.381,7.322c0,5.827-5.812,11.027-11.954,12.178C59.124,49.994,60.782,43.958,61.6,37.308Zm-5.11,29.959c.523,0,1.046-.1,1.494-.1,7.277,0,13.836,4.483,13.836,9.668v.717C71.107,84.869,62.68,88.9,53.506,89.008,54.148,81.313,55.284,74.544,56.494,67.267Z" transform="translate(0 3.04)"/><path d="M80.7,49.6a5.17,5.17,0,0,0,4.976-4.886v-.732c0-3.437-1.24-4.677-3.108-4.677s-7.292,1.883-7.292,4.692C75.28,44.1,77.581,49.6,80.7,49.6Z" transform="translate(18.988 8.713)"/><path d="M226.591,66.99c.09-.1,0-.314.4-.628h-.4a.478.478,0,0,0-.418-.523,1.5,1.5,0,0,0-.732.314A77.4,77.4,0,0,1,203.7,74.6a2.137,2.137,0,0,0-.717-1.494,352.392,352.392,0,0,1,10.265-41.973c0-.1.1-.314.1-.418a24.37,24.37,0,0,0,1.494-6.246c0-1.494-.523-2.391-2.077-2.391a3.378,3.378,0,0,0-.941.1,4.484,4.484,0,0,0-1.151-.09c-2.182,0-5.409,1.136-5.977,2.6h-.418c-1.868,0-2.914,2.077-3.227,2.809-3.153,7.471-7.172,21.741-10.684,39.074-.837.3-1.763.687-2.988,1.2-.1,0-.209.1-.314.1a33.484,33.484,0,0,1-6.545,2.286,1.18,1.18,0,0,0-.837-.314.568.568,0,0,0-.613.523c0,.1.3.523.4.837s-.3.523-.3.717v1.046A36.459,36.459,0,0,1,172.53,92.84a12.133,12.133,0,0,1-.418-3.332,34.368,34.368,0,0,1,.732-5.827,2.524,2.524,0,0,0,.09-.822c2.017-9.219,6.5-17.363,12.776-20.247.508,0,.926.209,1.494.209a2.107,2.107,0,0,0,.732-.12.852.852,0,0,0,.314-.613c0-1.36-4.9-2.077-5.977-2.077h-.941c-7.471,0-12.85,8.114-15.42,16.287-5.036,6.9-10.1,13.567-11.7,13.792-.1,0-.1-.1-.1-.314a1.778,1.778,0,0,1,.1-.732,104.7,104.7,0,0,0,1.345-13.313c0-6.44-1.674-11.954-8.547-11.954-8.323,0-13.194,10-17.154,15.824,2.182-13.313,9.653-44.826,9.638-53.672a4.811,4.811,0,0,0-.314-2.092c0-1.868-2.182-2.182-4.258-2.167-.941,0-1.987.1-2.7.1-4.273,0-7.292,4.483-7.8,8.637-1.494,10.923-3.213,23.22-4.946,35.473a22.7,22.7,0,0,0-5.977,1.972c-.1,0-.209.1-.314.1a32.6,32.6,0,0,1-6.545,2.3,1.18,1.18,0,0,0-.837-.314.583.583,0,0,0-.628.523c0,.1.314.523.418.822s-.314.523-.314.732v.941a36.324,36.324,0,0,1-6.53,19.873,12.208,12.208,0,0,1-.418-3.332,34.145,34.145,0,0,1,.717-5.827,2.3,2.3,0,0,0,.1-.837c1.868-9.145,6.335-17.258,12.671-20.187.523,0,.941.209,1.494.209a1.927,1.927,0,0,0,.717-.1.911.911,0,0,0,.314-.628c0-1.345-4.886-2.077-5.977-2.077h-.926c-7.8,0-13.269,8.756-15.7,17.228-3.96,5.3-9.249,11.8-11.431,11.8-.926,0-.926-1.345-.926-1.972,0-4.677,3.721-16.436,4.034-18.932a3.227,3.227,0,0,0,.314-1.36c0-3.332-3.96-4.049-6.56-4.049a1.853,1.853,0,0,0-1.24.314C72.493,65.062,69.28,76.4,69.28,82.335s3.541,10.923,9.683,10.908c4.079,0,7.875-2.988,11.341-6.948v.179c0,3.96,1.046,10.609,6.141,11.027.418,0,.926.1,1.345.1a5.452,5.452,0,0,0,1.494-.209c5.977-2.988,5.2-4.378,6.545-6.978,1.24-1.136,2.182-8.741,2.182-10.46a48.229,48.229,0,0,0-.732-7.172l.3-.1c.418.1-.1.314.732.314,1.36,0,4.169-.418,4.677-1.255a.971.971,0,0,0,.732-.523c0-.418,1.494-.523,2.077-1.36.523,0,1.36-.209,1.36-.717.508,0,.926-.523,1.031-.628a.359.359,0,0,0-.1.209l1.046-.4c-1.151,8.158-2.256,16.257-3.213,23.907a7.338,7.338,0,0,0-.1,1.494c0,2.7.941,4.692,1.673,5.11a2.987,2.987,0,0,0-.209-.837c0-.628.418-.209.418-1.046.209,0,.732.628.732.628.1.314.3,1.151.4,1.151V97.233a.792.792,0,0,1,.1-.418c0,.418.418,1.36.837,1.36,0-.418-.1-.628-.1-1.255a.9.9,0,0,0,.314.523c0-.209,0-.628.209-.732s.209.732.314.837,0,.523.1.523.1-.1.1-.418c.209,0,.314.209.418.209v-.941c0,.209,1.255.209,1.255.209s-1.151.314-1.151.523,1.046.628,1.151.628c0-.523.1-.837.523-.837a1.06,1.06,0,0,1,.1-.314c.209,0,.314-.209.314-.418l.314.314.09-.314c.1.523.1.628.209.732l.732-.732c.1.1.837,0,.837.209v.418c0,.209,0,.314.1.314s.418-.418.523-.628v.523c.209,0,.3-.523.4-.837,0,.628.1.837.418.837a18.588,18.588,0,0,1,.837-3.541c0-.1.1-.209.1-.314.418-.209,2.286-2.182,2.286-2.988,0-4.572,11.222-15.51,14.853-21.547a18.4,18.4,0,0,1,.209,3.437c0,4.677-.926,10.191-.926,14.673,0,6.963,3.242,9.772,7.292,9.772a12.193,12.193,0,0,0,6.545-2.3,37.266,37.266,0,0,0,6.335-5.932c.389,3.8,1.853,8.323,5.977,8.652.418,0,.941.1,1.36.1a5.422,5.422,0,0,0,1.494-.209c5.977-2.914,5.2-4.363,6.545-6.963,1.255-1.151,2.182-8.741,2.182-10.46a46.321,46.321,0,0,0-.732-7.172l.314-.1c.418.1-.1.314.717.314,1.36,0,4.169-.418,4.692-1.255a.986.986,0,0,0,.717-.523c0-.4,1.494-.523,2.077-1.345-.314,1.614-.628,3.227-.926,4.886l-.628,3.332c-1.957,10.191-4.483,23.4-4.483,34.636a44.345,44.345,0,0,0,1.494,12.268c1.868,2.988,4.483,6.56,7.9,6.56a6.738,6.738,0,0,0,2.6-.628,4.378,4.378,0,0,1,3.228-1.987c1.868,0,1.659-.1,2.809-.941.209.209.314.314.523.314s.717-.523,1.136-.523c3.123,0,4.782-6.963,5.1-7.172s.418-2.286.523-2.286a44.023,44.023,0,0,0,1.494-12.6c0-9.04-1.584-19.544-4.184-25.686a144.063,144.063,0,0,0,14.554-5.827,9.816,9.816,0,0,0,.837-.941c-1.494,1.24-3.646,1.494-4.483,1.972,1.151-1.136-.09.314,4.9-2.7a2.346,2.346,0,0,1,1.24-.837s1.345-.717,1.972-1.136c.209-.418.314-.523.314-.628s-1.031.732-1.659,1.046c.1-.314.508-.418.628-.628-.837,0-1.494.941-2.3.941,2.6-1.883,1.255-.732,3.855-2.51.1.1.822-1.494.926-1.763S226.681,66.99,226.591,66.99Zm-107.972.284c0-.314.523-.314.628-.314s-.1.314-.209.314Zm.418.628c0-.3.194-.314.3-.314v.224a.587.587,0,0,1-.3.149ZM146.2,91.181a2.018,2.018,0,0,0-.314-1.046c.209,0,.418.523.418.732s-.1.269-.1.374Zm.4-4.169a.388.388,0,0,1,.1.314.538.538,0,0,1-.209-.418V84.517c0-.314.209-.508.209-.4s.1.194.1.4-.1,1.151-.1,1.494c.314,0,.1-1.151.314-1.046v.628c0,.822,0,1.479-.463,1.479Zm.314-2.988a4.118,4.118,0,0,1,.209-.628c0,.314.1.523.1.717s-.314-.045-.314-.045Zm.732-.314c-.1,0-.209-.314-.209-.418s.209-.418.418-.418c0,.672-.1.882-.209.882Zm.209-1.151c-.1,0-.314-.418-.314-.628s.418,0,.523-.1Zm40.687,36.728a12.023,12.023,0,0,1,.628,1.778c0,.209-.209.209-.209.314a16.842,16.842,0,0,0-.418-1.674Zm-1.644-5.1a3.707,3.707,0,0,0,.1-.628,1.913,1.913,0,0,1,.209.941.284.284,0,0,1-.314-.314Zm1.046,7.9a4.859,4.859,0,0,1-.628-1.494c.418,0,.523.1.523.209a.373.373,0,0,1-.314.209c0,.209.418.508.523.508a.463.463,0,0,1,.1.314c-.224-.06-.224.045-.224.254Zm.1-3.317a4.482,4.482,0,0,1,.1-.523,2.384,2.384,0,0,1-.1-.418c0-.1-.209-.314-.209-.209,0-.418.1-.523.209-.523a9.345,9.345,0,0,0,.194,1.255v.613c-.209,0-.209-.1-.209-.194Zm2.077,4.483c0,.209-.209.209-.314.209a.224.224,0,0,1-.209-.209,1.064,1.064,0,0,1,.1-.314s-.314.209-.314.314a4,4,0,0,0,.418,1.494,1.494,1.494,0,0,0-.209.314c-.1,0-.1-.1-.1-.314s.1-.209.1-.314-.1-.209-.314-.314-.1-.3-.209-.3-.194.209-.194.3-.314-.194-.314-.3.209-.314.209-.418a1.729,1.729,0,0,0-.209-.628v-.941a2.807,2.807,0,0,0-.1-.926,22.092,22.092,0,0,0,.926,2.077c.1-.209.209-.1.209-.418s.1-.209.1-.314a1.492,1.492,0,0,1-.209-.418c.418,0,.314.314.523.523a5.98,5.98,0,0,0,.418,1.494c-.12-.09-.12-.508-.329-.613Zm4.692,7.471c0,.1-.418.209-.628.418l-.209-.314c0-.314.628-.209.837-.628Zm2.988-8.114a54.69,54.69,0,0,1-.837-11.655,183.212,183.212,0,0,1,3.616-25.7,55.122,55.122,0,0,1,1.987,15.6c.015,8.427-1.434,17.273-4.767,21.756ZM205.6,90.987c0-.209,0-.314-.1-.418.314.1.314.314.314.837-.209,0-.209-.209-.209-.418Zm.4,0c0-.418-.1-.628-.1-.837a1.764,1.764,0,0,1,.1-.717c.1,0,.314,1.345.418,1.345a.732.732,0,0,1-.418.209Zm2.092,11.027c0,.1.1.418.1.523a.478.478,0,0,1-.314-.314l-.508-.523c0-.1.613-.1.613-.1s.209.209.314.209-.1.209-.209.209Zm.628-2.988c.1,0,.1.523.209.926-.1-.09-.314-.194-.314-.3s0-.448.1-.553Zm-.732-1.255c.1,0,.1-.209.1-.314v-.4a.583.583,0,0,1,.209-.523v1.494a5.525,5.525,0,0,0,.1,1.36c-.523-.418-.209-.418-.628-.837.1,0,.1-.209.1-.314a1.613,1.613,0,0,0-.209-.837v-.374c.149,0,.314.613.314.822Zm-.164,2.376s-.149-.284,0-.284a1.059,1.059,0,0,0,.1-.314c.1,0,.209.523.209.628a.433.433,0,0,0,.314-.12.523.523,0,0,0,.1.314c.1,0,.209-.1.314-.1s.1.1.1.314c-.418,0-.418.1-.418.209a.817.817,0,0,1-.418.418,1.106,1.106,0,0,1,.209-.523,1.494,1.494,0,0,1-.209-.314c-.1,0-.1.314-.1.523s-.209-.1-.209-.209a1.79,1.79,0,0,1,.1-.508c0,.09-.209.194-.314.194s-.209.314-.314.314-.1-.1-.1-.418a2.078,2.078,0,0,1,.628-.12Zm-1.36-11.027v.613a.388.388,0,0,1,.1.314l-.1.418a2.811,2.811,0,0,1-.209-1.24l-.209-.418c0-.418,0-.523.1-.523s.374.523.374.837ZM220.6,71.009c.418,0,.732-.1.732-.314s-.314.628-.314.732c-.732.3-1.15.717-1.36.717s-.1-.1-.1-.4.687-.732,1.106-.732Zm-2.988,2.809a2.63,2.63,0,0,1,1.36-.941,3.9,3.9,0,0,0,2.391-1.046,9.324,9.324,0,0,1-3.616,1.987Z" transform="translate(16.022 0)"/><path d="M96.8,94.051c0-.314-1.868-.628-2.286-.628h-.463a.389.389,0,0,1-.314-.1l-.3.1a.209.209,0,0,0-.209-.194.613.613,0,0,1-.523-.209.792.792,0,0,1-.418.209h-.628c-.314,0-.314.1-.314.1-4.767.045-22.294,20.291-22.294,20.291s-.209.418-.418.418-.209-.209-.209-.314c1.031-7.9,3.93-20.4,6.321-31.11,0,0-1.046,0-1.046-.194a11.351,11.351,0,0,1-.568-1.778,3.989,3.989,0,0,1-1.046-.314c-.314,0-.314.314-.523.314a4.483,4.483,0,0,1-1.763-.209s-.314-.3-.523-.3c-.523,0-.941.4-1.494.418s-1.255-.1-1.883-.1a3.228,3.228,0,0,0-2.077.628c-.418.09-.837.613-1.36.613-.09,0-.194.1-.3.1a1.046,1.046,0,0,0-.418-.1c-.418,0-.732.209-1.046.209a1.33,1.33,0,0,0-.628-.1c-.613,0-1.136.418-1.659.418,0,.1-.209.209-.418.209C54.571,92,50.521,109.89,47.727,124.981c-.508,5.2-2.167,13.209-2.167,20.381a21.427,21.427,0,0,0,2.092,10.459,3.616,3.616,0,0,0,2.6,1.972,11.042,11.042,0,0,0,6.141,1.868,4.975,4.975,0,0,0,1.24-.1c0-.209.209-.314.418-.314a.344.344,0,0,0,.1-.3c0-.1.837.508,1.151.822,0-.314-.209-.523-.209-.822a1.494,1.494,0,0,1,.209-.523c.194,0,.508.1.508.314,0-.209,1.046.508,1.494,1.031,0-.523-.418-.732-.418-1.24.1.3.418.717.628.717a4.065,4.065,0,0,0-.314-1.136c.314.314.523.822.822.822s.628.523,1.046.732a1.375,1.375,0,0,0-.314-1.046c0-.4.1-.508.209-.508s.732,1.031,1.151,1.24a2.421,2.421,0,0,1-.209-.926c.314.3.732.822.926.822a5.038,5.038,0,0,1-.3-.941c.4,0,.717.732.822.732a.777.777,0,0,0,.1-.523c0-.926-1.046-2.182-1.24-2.794a43.167,43.167,0,0,1-1.061-8.965,72.5,72.5,0,0,1,1.494-12.686l.209-1.151c1.778,3.541,9.16,10.086,13.224,11.745a3.244,3.244,0,0,1-.209-.732c.837,1.494,4.782,2.6,6.246,2.914a18.95,18.95,0,0,1,2.077.418,29.112,29.112,0,0,1,3.228.822c.1,0-.1-.1-.1-.314s.209-.314.732-.314a.852.852,0,0,1-.12-.418,9.607,9.607,0,0,1,2.51.941,25.8,25.8,0,0,1,3.213.926c-8.323-8.308-19.425-13.194-24.147-25.671,8.143-10.026,19.26-20.889,26.746-28.764-.1,0-.209-.314-.314-.209l-.418.418c-.1,0-.1-.1-.1-.523-.209,0-.209.1-.314.1S96.9,94.051,96.8,94.051Z" transform="translate(4.284 28.897)"/><path d="M86.906,137.484c1.868-9.16,6.335-17.273,12.671-20.187.523,0,.941.209,1.494.209a1.929,1.929,0,0,0,.717-.1.912.912,0,0,0,.314-.628c0-1.345-4.886-2.077-5.977-2.077h-.852c-10.818,0-17.154,16.87-17.154,26.433,0,3.96,1.061,10.609,6.156,11.027.418,0,.926.1,1.345.1a5.454,5.454,0,0,0,1.494-.209c5.977-2.988,5.2-4.378,6.545-6.978,1.24-1.151,2.182-8.741,2.167-10.459a46.494,46.494,0,0,0-.732-7.187l.314-.09c.418.09-.1.3.732.3,1.36,0,4.154-.418,4.677-1.24a.971.971,0,0,0,.732-.523c0-.418,1.494-.523,2.077-1.36.523,0,1.36-.209,1.36-.732.508,0,.926-.523,1.031-.613a.313.313,0,0,0-.1.194c.941-.329,2.152-.882,3.437-1.225a19.679,19.679,0,0,0-6.545,14.031c0,9.145,6.35,13.612,14.778,13.612,8.024,0,14.673-4.826,20.441-12.223-.418,3.153-.822,6.261-1.2,9.294a7.475,7.475,0,0,0-.1,1.494c0,2.7.941,4.677,1.673,5.1a2.884,2.884,0,0,0-.224-.837c0-.628.418-.209.418-1.046.209,0,.732.628.732.628.1.314.314,1.151.418,1.151v-1.494a.792.792,0,0,1,.1-.418c0,.418.418,1.36.837,1.36,0-.418-.1-.628-.1-1.255a.9.9,0,0,0,.314.523c0-.209,0-.628.194-.732s.209.732.314.837,0,.523.1.523.1-.1.1-.418c.209,0,.314.209.418.209v-.941c0,.209,1.255.209,1.255.209s-1.151.314-1.151.523,1.046.628,1.151.628c0-.523.1-.837.508-.837a1.061,1.061,0,0,1,.1-.314c.209,0,.314-.209.314-.418l.314.314.1-.314c.1.523.1.628.209.732l.732-.732c.1.1.822,0,.822.209v.418c0,.209,0,.314.1.314s.418-.418.523-.628v.359c.209,0,.314-.523.418-.837,0,.628.1.837.418.837a19.931,19.931,0,0,1,.822-3.541c0-.1.1-.209.1-.314.418-.209,2.286-2.182,2.286-2.988,0-4.572,11.222-15.51,14.942-21.547a18.393,18.393,0,0,1,.209,3.437c0,4.677-.926,10.191-.926,14.673,0,6.963,3.228,9.772,7.292,9.772a12.073,12.073,0,0,0,6.545-2.3c1.046-.732,6.545-5.3,6.44-6.455,0-.628.837-1.24,1.151-1.494,0,.628-.523.523-.523.926a43.13,43.13,0,0,0,3.646-4.781c0-.314,0-.523.3-.732.1.209.418-.523.523-.523a30.277,30.277,0,0,0,2.7-4.049c-.418,0-.523.837-1.046,1.136-.1,0,0,.418-.209.418s-1.345,1.255-1.494,1.36a.463.463,0,0,0-.1-.314c-.1,0,.1-.209.1-.314,1.046,0,2.809-3.123,2.988-3.123a24.12,24.12,0,0,0,1.868-2.5c-.209.209-.628.628-.732.628a1.062,1.062,0,0,0,.1-.314c-.523-.1-1.494,1.494-1.868,1.972,0,0-.628,1.987-1.494,1.987a6.453,6.453,0,0,0,.822-1.046c0-1.255,2.5-3.437,3.332-4.886a1.315,1.315,0,0,1-.732.508,1.36,1.36,0,0,0,.628-.926c0-.1-.418.418-.628.418l.941-1.494a2.256,2.256,0,0,0,.508-.941c-.209.209-.314.209-.4.209.3-1.031.926-1.031,1.136-1.763-.418,0-.523-.628-.837-.628v-.613a2.215,2.215,0,0,1-.314.4,3.407,3.407,0,0,1-1.24.523c-.1,0-.209-.1-.314-.209a.389.389,0,0,1-.314.1c0-.209-.523.418-.837.628s-.194-.209-.3-.209a.463.463,0,0,0-.1.314c-.209,0-.209-.1-.314-.1s-.314.314-.418.418c-6.231,8.532-14.867,20.814-17.049,21.128-.1,0-.1-.1-.1-.314a1.779,1.779,0,0,1,.1-.732,102.026,102.026,0,0,0,1.345-13.313c0-6.44-1.673-11.954-8.532-11.954-8.323,0-13.209,10-17.154,15.824,2.167-13.313,9.638-44.826,9.638-53.672a4.692,4.692,0,0,0-.314-2.077c0-1.883-2.2-2.2-4.273-2.182-.926,0-1.972.1-2.7.1-4.259,0-7.277,4.483-7.785,8.637-1.733,13.134-3.96,28.241-5.977,42.884-5.409,7.964-12.865,15.794-18.424,15.794h-.523c-3.437-.314-4.483-2.988-4.483-5.977,0-4.9,3.526-15.824,8.965-15.824.209,0,.314.1.523.1a7.768,7.768,0,0,0,1.494.1c2.5,0,4.064-1.255,4.064-2.6,0-2.809-5.723-3.228-7.71-3.228a20.172,20.172,0,0,0-11.461,3.736h-.179a23.04,23.04,0,0,0-10.3,2.406c-.1,0-.209.1-.314.1a32.335,32.335,0,0,1-6.574,2.211,1.18,1.18,0,0,0-.822-.3.583.583,0,0,0-.628.508c0,.1.314.523.418.837s-.314.523-.314.732v.941a36.28,36.28,0,0,1-6.575,19.9,11.957,11.957,0,0,1-.418-3.317,33.966,33.966,0,0,1,.717-5.827A2.3,2.3,0,0,0,86.906,137.484Zm107.434-9.653a6.62,6.62,0,0,1-.822,1.494c-.1-.1-.209-.209-.209-.314-.045-.448.478-.926.986-1.18Zm-5.08,5.977c.1,0,.508-.418.717-.613s.523-.941.941-.941c.1,0-.418,1.031-.523,1.24a1.913,1.913,0,0,1-1.24.941c0,.418-.1.732-.418.837-.045-.463.164-1.509.478-1.509Zm-20.4,2.719-.209.732c-.1,0-.314-.418-.314-.628s.374-.045.478-.149Zm-.209,1.046c0,.628-.09.837-.209.837s-.194-.314-.194-.418.149-.463.359-.463Zm-.717.523c0,.314.1.523.1.732s-.314-.1-.314-.1a4.114,4.114,0,0,1,.164-.672Zm-.418.732c.1.1.1.194.1.4s-.1,1.151-.1,1.494c.314,0,.1-1.151.314-1.046v.628c0,.628,0,1.345-.418,1.345a.4.4,0,0,1,.1.314.508.508,0,0,1-.209-.4v-2.391c-.045-.284.164-.493.164-.389Zm-.418,6.754c0,.1-.1.209-.1.314a2.136,2.136,0,0,0-.3-1.046c.149-.045.359.478.359.687ZM111.635,120.27l-.568.433h-.882Zm-2.062.388c.209,0,.314,0,.314.1s-.628.314-.837.314-.314,0-.418-.1a1.285,1.285,0,0,0,.9-.359Zm.359.971-.224.194a11.956,11.956,0,0,0-1.808.4l-.1-.314a13.023,13.023,0,0,1,2.092-.329Zm-2.331.284c0,.314-.1.418-.209.418a.538.538,0,0,1,.164-.463Zm-.837.732c0-.314.209-.314.314-.314-.045.269-.149.269-.359.269Zm.209-.941c0,.209-.1.314-.209.314h-.433c0-.359.493-.359.6-.359Z" transform="translate(20.391 27.063)"/></g><g transform="translate(1103.341 557.484)"><g class="c" transform="translate(0 -265.951)"><g transform="translate(2.935 1.007)"><path class="d" d="M0,1.518C39.837-.138,80.007-3.88,119.873-4.359c73.22-.88,146.234,5.9,219.33,5.877" transform="translate(0 4.438)"/></g><g transform="translate(0.979 351.441)"><path class="d" d="M0,1.138C39.835-.1,80.006-2.908,119.873-3.268c73.22-.662,146.234,4.421,219.33,4.406" transform="translate(0 3.327)"/></g><g transform="translate(339.263 4.991)"><path class="d" d="M0,0C1.41,41.1,4.6,82.552,5.008,123.689,5.76,199.24-.016,274.578,0,350" transform="translate(0)"/></g><g transform="translate(1.578 6.075)"><path class="d" d="M0,0C1.215,40.959,3.967,82.262,4.319,123.253,4.966,198.538-.016,273.609,0,348.767" transform="translate(0)"/></g></g></g></g></svg>